<?xml version="1.0" encoding="UTF-8"?>
<svg version="1.1" xmlns="http://www.w3.org/2000/svg" width="512" height="512">
<path d="M0 0 C0.70135071 -0.0065712 1.40270142 -0.0131424 2.12530518 -0.01991272 C4.43990193 -0.03957818 6.75443402 -0.05129271 9.0690918 -0.0612793 C9.8620635 -0.06535482 10.65503521 -0.06943035 11.47203636 -0.07362938 C15.66869213 -0.0944606 19.86531549 -0.10877545 24.06201172 -0.11816406 C28.38626846 -0.12922692 32.71001042 -0.16363345 37.03408527 -0.20333576 C40.36877878 -0.22953286 43.70335009 -0.23785858 47.03813744 -0.24144554 C48.63167996 -0.24630293 50.22521734 -0.25789274 51.81865883 -0.27648354 C54.0539958 -0.30094409 56.28800649 -0.29989832 58.5234375 -0.29296875 C59.79266556 -0.29883499 61.06189362 -0.30470123 62.36958313 -0.31074524 C66.87553835 0.30209013 69.19824521 1.64204162 72.95581055 4.17700195 C77.12400473 9.7345942 77.09895769 15.06282314 77.06933594 21.80102539 C77.06948196 22.66967728 77.06962799 23.53832916 77.06977844 24.43330383 C77.06908245 27.30102038 77.0613047 30.16867177 77.0534668 33.03637695 C77.0516015 35.02606165 77.05017813 37.01574681 77.04917908 39.00543213 C77.04536267 44.23986074 77.03553983 49.47426156 77.0244751 54.7086792 C77.01424216 60.05098088 77.00967742 65.39328705 77.00463867 70.7355957 C76.9939168 81.21607666 76.97685087 91.69653699 76.95581055 102.17700195 C77.56344238 102.1639502 78.17107422 102.15089844 78.79711914 102.13745117 C79.59972168 102.1272998 80.40232422 102.11714844 81.22924805 102.10668945 C82.4191333 102.08711182 82.4191333 102.08711182 83.63305664 102.06713867 C89.56987556 102.34794259 94.18105455 105.64566413 98.44799805 109.5012207 C105.29319637 117.10896702 104.42918426 128.5810743 104.08764648 138.14624023 C103.57782441 145.99938845 100.77104125 151.90511351 94.95581055 157.17700195 C89.89934372 160.78876398 85.84160873 161.30619541 79.70581055 161.23950195 C78.6281543 161.23047852 77.55049805 161.22145508 76.44018555 161.2121582 C75.6203418 161.20055664 74.80049805 161.18895508 73.95581055 161.17700195 C73.7527832 162.14186523 73.7527832 162.14186523 73.5456543 163.1262207 C68.87978582 182.71169257 55.34129896 199.32630788 38.4362793 209.86450195 C35.95581055 211.17700195 35.95581055 211.17700195 31.95581055 212.17700195 C31.95581055 217.45700195 31.95581055 222.73700195 31.95581055 228.17700195 C33.22295898 227.52731445 34.49010742 226.87762695 35.7956543 226.20825195 C37.4944087 225.36356745 39.19365396 224.51986963 40.89331055 223.67700195 C41.72411133 223.24774414 42.55491211 222.81848633 43.41088867 222.3762207 C48.91463758 219.67788466 53.7864542 218.06465445 59.95581055 219.17700195 C62.98796729 221.37531559 63.77235453 222.62663389 64.95581055 226.17700195 C65.02321919 227.73818623 65.04095511 229.30202715 65.01831055 230.86450195 C65.00928711 231.67274414 65.00026367 232.48098633 64.9909668 233.3137207 C64.97356445 234.23604492 64.97356445 234.23604492 64.95581055 235.17700195 C66.18098389 235.15605469 67.40615723 235.13510742 68.66845703 235.11352539 C73.24743803 235.04070385 77.82636862 234.99504981 82.40576172 234.95727539 C84.38143545 234.93725549 86.35705064 234.91003103 88.33251953 234.87524414 C91.18496205 234.82629988 94.03661603 234.80393671 96.8894043 234.78637695 C97.76165146 234.76573181 98.63389862 234.74508667 99.53257751 234.72381592 C105.81580932 234.72155653 110.42514041 236.22726941 115.95581055 239.17700195 C117.38744287 232.86153548 118.81073491 226.54423109 120.22827148 220.22558594 C120.71138199 218.07671689 121.19639317 215.92827422 121.68334961 213.78027344 C122.38335474 210.69096508 123.07648816 207.6001829 123.76831055 204.5090332 C123.98704834 203.55051956 124.20578613 202.59200592 124.43115234 201.60444641 C124.63135986 200.70389023 124.83156738 199.80333405 125.0378418 198.87548828 C125.21549072 198.08717117 125.39313965 197.29885406 125.57617188 196.48664856 C125.99168451 193.95875185 126.17664539 191.7330245 125.95581055 189.17700195 C123.8273776 186.55245675 123.8273776 186.55245675 122.24487305 185.0949707 C118.50071643 179.5241195 118.60594044 172.340021 118.64331055 165.86450195 C118.63952393 165.03072021 118.6357373 164.19693848 118.63183594 163.33789062 C118.68392156 158.50894318 119.22496186 154.57104411 120.89331055 149.98950195 C121.81951427 147.53358907 121.81951427 147.53358907 121.95581055 145.17700195 C120.51731326 142.78398777 118.83655716 141.11998077 116.8190918 139.1965332 C112.11318087 134.09599663 111.36640582 126.390707 111.6081543 119.68481445 C112.49014107 113.32261772 114.90613517 108.2069183 119.20581055 103.48950195 C122.33605871 99.65417314 122.17360479 96.7927234 121.95581055 91.92700195 C121.64776733 83.99686369 123.24793567 78.58895424 127.95581055 72.17700195 C134.41800461 65.61113632 141.68690706 62.36910358 150.95581055 62.17700195 C151.81561523 62.3471582 152.67541992 62.51731445 153.5612793 62.69262695 C156.57399069 63.2875206 158.90294411 63.58862439 161.95581055 63.17700195 C164.7864754 61.02712991 166.94695151 58.60849935 169.3034668 55.95043945 C180.71743853 44.01535855 198.46221863 38.39135828 214.61425781 37.84228516 C234.13949539 37.52340322 252.76416668 43.3373362 266.99829102 57.10888672 C268.3335883 58.44905059 269.64544239 59.81245318 270.95581055 61.17700195 C271.64288086 61.86793945 272.32995117 62.55887695 273.0378418 63.27075195 C284.86395791 75.84405187 290.36570255 93.39163134 291.33081055 110.30200195 C291.73082153 116.58141963 293.03989851 122.45166779 294.58422852 128.52905273 C295.33812909 131.49688722 295.95581055 134.10001903 295.95581055 137.17700195 C296.94581055 137.21825195 297.93581055 137.25950195 298.95581055 137.30200195 C303.94477412 138.04073287 307.45898474 140.64216717 310.95581055 144.17700195 C315.59259066 151.11884804 316.15810454 157.72466497 316.20581055 165.86450195 C316.23674805 167.15517578 316.23674805 167.15517578 316.26831055 168.47192383 C316.30794681 175.04658848 315.69935847 182.04151862 311.20581055 187.17700195 C308.50223219 191.50272733 310.90393204 198.20824824 311.94631958 202.95895386 C312.35310752 204.70201194 312.76560844 206.44374352 313.18286133 208.18432617 C313.40985372 209.15022108 313.6368461 210.11611599 313.87071705 211.11128044 C314.62588847 214.31927709 315.38852776 217.52545021 316.15112305 220.73168945 C316.69324922 223.02846799 317.23486807 225.32536633 317.77601624 227.62237549 C318.93461539 232.53646395 320.09630419 237.44980772 321.26034546 242.36260986 C323.09040271 250.08806928 324.91143422 257.81564021 326.73046875 265.54370117 C327.34794199 268.16654259 327.96546339 270.78937267 328.58299255 273.41220093 C328.73661792 274.06472025 328.89024328 274.71723957 329.04852396 275.38953221 C330.61789333 282.05488317 332.18918868 288.71977968 333.76074946 295.38461423 C334.23186745 297.38259965 334.70294728 299.38059405 335.17401409 301.37859154 C337.01479421 309.18611139 337.01479421 309.18611139 338.85587311 316.99356079 C342.19934544 331.17144501 345.5376024 345.35050881 348.85536957 359.53443336 C350.36661687 365.9939801 351.88655301 372.45139574 353.41320515 378.90731812 C354.35493594 382.89914416 355.28827516 386.89289622 356.21917534 390.88726044 C356.64870522 392.72292462 357.08161363 394.5578022 357.51823616 396.3917923 C358.11242786 398.8899054 358.69415368 401.39061588 359.27294922 403.89233398 C359.53201396 404.961769 359.53201396 404.961769 359.79631233 406.05280876 C361.15725952 412.03533568 362.15830355 418.3511434 359.70581055 424.11450195 C357.75420842 426.41460446 356.76999535 427.13016139 353.95581055 428.17700195 C351.28402033 428.367843 348.7176443 428.44888278 346.0465107 428.43427086 C345.24002702 428.43777693 344.43354335 428.44128301 343.60262078 428.44489533 C340.8831349 428.45424592 338.16386145 428.44927661 335.44436646 428.44442749 C333.48178363 428.4481619 331.5192023 428.45276258 329.55662334 428.45815814 C324.15007833 428.4704293 318.743595 428.47012284 313.33703923 428.46776938 C307.51143638 428.46736226 301.68585358 428.47839035 295.86026001 428.48788452 C284.44201299 428.5045178 273.02378661 428.50999511 261.60552849 428.51110928 C252.32744848 428.5120586 243.0493753 428.51616311 233.77129745 428.52251053 C231.10212895 428.52429951 228.43296044 428.5260852 225.76379192 428.52786028 C225.10025911 428.52830238 224.43672629 428.52874448 223.75308643 428.52919997 C205.08541765 428.54151089 186.41775121 428.54940084 167.7500782 428.54851341 C167.04605209 428.54848226 166.34202598 428.5484511 165.61666575 428.548419 C162.04823937 428.54825278 158.479813 428.54805469 154.91138662 428.54784958 C154.20266389 428.54780969 153.49394115 428.5477698 152.76374196 428.5477287 C151.33053163 428.54764783 149.89732131 428.54756423 148.46411098 428.54747792 C126.1620017 428.5462522 103.85995321 428.56126827 81.55786133 428.58862305 C56.51101652 428.61933164 31.46421166 428.6365563 6.41734684 428.6346966 C-6.84806612 428.63395495 -20.11341341 428.63956782 -33.37881088 428.6610527 C-44.67192258 428.67922558 -55.96493464 428.68364391 -67.2580546 428.67003386 C-73.02280402 428.66348465 -78.78736206 428.66345731 -84.55209351 428.68074036 C-89.82607088 428.69638986 -95.09970383 428.69369093 -100.37367238 428.67617209 C-102.28481936 428.67308422 -104.19599153 428.67680124 -106.10710882 428.68789224 C-108.69956231 428.70194463 -111.29079617 428.69148173 -113.88320732 428.67477989 C-115.00335176 428.68968443 -115.00335176 428.68968443 -116.14612538 428.70489007 C-121.23970423 428.63523021 -124.1122004 427.36769761 -128.04418945 424.17700195 C-131.12557926 420.30101833 -131.423317 417.30135958 -131.43859863 412.41694641 C-131.44468974 411.75002736 -131.45078084 411.0831083 -131.45705652 410.39597958 C-131.47366331 408.16827134 -131.4689142 405.94113617 -131.46411133 403.71337891 C-131.47145328 402.11311755 -131.48003988 400.51286149 -131.48977661 398.91261292 C-131.51199434 394.56935397 -131.51492297 390.22628474 -131.5130291 385.88297677 C-131.51290935 382.25258681 -131.52147588 378.62223697 -131.52980661 374.99185818 C-131.54904368 366.42146546 -131.55192428 357.85117012 -131.54516602 349.28076172 C-131.53853315 340.45395795 -131.56135838 331.6275729 -131.59847975 322.80085403 C-131.62922929 315.21252489 -131.64053084 307.62433003 -131.63664293 300.03593987 C-131.63457991 295.50836753 -131.63998454 290.98112065 -131.66453552 286.45360756 C-131.6868856 282.1909968 -131.68485682 277.92906313 -131.664608 273.66644859 C-131.66121187 272.10807132 -131.6662265 270.54964777 -131.68059158 268.99133301 C-131.76595753 259.03842052 -131.12849407 250.6306597 -124.05440521 243.04266834 C-117.05444951 236.34736846 -110.58722219 234.7188712 -101.1730957 234.8840332 C-100.25076645 234.88827805 -99.32843719 234.89252289 -98.37815857 234.89689636 C-95.4540291 234.91358832 -92.53060797 234.95122258 -89.60668945 234.98950195 C-87.615163 235.00456106 -85.62362567 235.01824731 -83.63208008 235.03051758 C-78.76918007 235.06346073 -73.90680455 235.11517696 -69.04418945 235.17700195 C-69.07790649 234.15727295 -69.07790649 234.15727295 -69.11230469 233.11694336 C-69.1297876 232.22152832 -69.14727051 231.32611328 -69.1652832 230.40356445 C-69.18776123 229.51749512 -69.21023926 228.63142578 -69.23339844 227.71850586 C-69.03426434 225.04368532 -68.63995207 223.72604558 -67.10668945 221.55200195 C-63.47258971 218.73372052 -61.96199589 218.69306382 -57.54248047 218.81225586 C-53.07478159 219.46453204 -49.40207591 221.52804938 -45.48168945 223.67700195 C-44.6637793 224.10625977 -43.84586914 224.53551758 -43.00317383 224.9777832 C-41.00754067 226.02811644 -39.02239791 227.09431435 -37.04418945 228.17700195 C-36.38418449 222.99696301 -36.0974966 218.33834999 -37.04418945 213.17700195 C-39.47079304 210.58772103 -41.80556007 209.35925368 -44.96606445 207.7668457 C-60.62691662 199.67805531 -71.12852132 182.87903204 -77.16137695 166.9621582 C-78.04418945 164.17700195 -78.04418945 164.17700195 -78.04418945 161.17700195 C-78.88981445 161.2234082 -79.73543945 161.26981445 -80.60668945 161.31762695 C-88.81701281 161.57886451 -94.53998803 161.23901009 -100.75512695 155.6340332 C-107.3076692 148.64998207 -108.58839276 141.06018148 -108.48168945 131.80200195 C-108.47266602 130.87242676 -108.46364258 129.94285156 -108.4543457 128.98510742 C-108.2580609 121.23322088 -107.52770192 115.03141032 -102.1730957 109.10668945 C-96.9678082 104.24579715 -93.03788168 102.08981033 -85.88012695 102.1418457 C-84.52346924 102.14945923 -84.52346924 102.14945923 -83.1394043 102.15722656 C-82.4479834 102.16375244 -81.7565625 102.17027832 -81.04418945 102.17700195 C-81.05085129 101.5146051 -81.05751312 100.85220825 -81.06437683 100.16973877 C-81.13115874 93.22575778 -81.17616669 86.28186922 -81.20898438 79.33764648 C-81.22399658 76.75199676 -81.24441258 74.16637217 -81.27050781 71.58081055 C-81.30722491 67.84718591 -81.3239922 64.11390029 -81.3371582 60.38012695 C-81.35264206 59.23900452 -81.36812592 58.09788208 -81.38407898 56.92218018 C-81.38658813 44.73888087 -79.30915769 34.45499159 -71.04418945 25.17700195 C-61.77034853 16.06064135 -52.5240858 14.0696007 -39.91918945 13.92700195 C-31.05196717 13.9414501 -31.05196717 13.9414501 -23.73168945 9.36450195 C-23.11293945 8.64520508 -22.49418945 7.9259082 -21.85668945 7.18481445 C-16.40578238 1.14652515 -7.67631767 0.05965015 0 0 Z " fill="#020201" transform="translate(141.044189453125,83.822998046875)"/>
<path d="M0 0 C3.46501297 1.27658372 6.34839551 2.76621059 9.375 4.875 C15.77668196 9.32125911 21.42046085 12.46685749 29 14.1875 C29.67289062 14.35185547 30.34578125 14.51621094 31.0390625 14.68554688 C35.33658132 15.71014837 39.62005243 16.3969685 44 17 C44.04651906 24.29368256 44.08196802 31.58733267 44.10362434 38.88113403 C44.11402286 42.26862868 44.12810933 45.65602116 44.15087891 49.04345703 C44.17522296 52.94566514 44.18650525 56.84772963 44.1953125 60.75 C44.20563507 61.95551514 44.21595764 63.16103027 44.22659302 64.40307617 C44.22758441 71.8884746 43.36679913 77.89960261 41 85 C40.59127001 89.64521282 40.59127001 89.64521282 42.0625 93.9375 C45.15493758 95.63335287 47.55514741 95.43060657 51 95 C53.81504877 92.08952584 54.71853061 89.12587757 55.6875 85.25 C55.93886719 84.26515625 56.19023437 83.2803125 56.44921875 82.265625 C56.63097656 81.51796875 56.81273437 80.7703125 57 80 C58.98 80 60.96 80 63 80 C65.67075591 89.74534489 68.07970747 99.50448621 70.25 109.375 C72.72756249 120.53238564 75.34099223 131.64972429 78.0625 142.75 C80.76740778 153.79344449 83.34375834 164.85715809 85.78149414 175.96313477 C89.62063494 193.43064154 93.66392696 210.85211758 98.0625 228.1875 C100.44250432 237.57333307 102.59560917 246.99686713 104.66674805 256.45532227 C106.95090713 266.86643685 109.37028304 277.24362524 111.81616211 287.61767578 C112.10112549 288.8292334 112.38608887 290.04079102 112.6796875 291.2890625 C112.93476074 292.36881348 113.18983398 293.44856445 113.45263672 294.56103516 C114 297 114 297 114 298 C102.45 298 90.9 298 79 298 C78.9906543 295.29159912 78.98130859 292.58319824 78.97167969 289.79272461 C78.93774322 280.79209805 78.88210281 271.79169675 78.81609726 262.79125118 C78.7767757 257.34023361 78.74451257 251.88937388 78.72900391 246.43823242 C78.71373579 241.16657966 78.67911255 235.89536132 78.63169098 230.62390327 C78.61698113 228.62396609 78.60896504 226.62396685 78.60811615 224.62397575 C78.59028797 203.6604829 75.23219878 186.97724147 60.2421875 171.1796875 C46.64695799 157.96341909 30.46860077 153.92343004 12 153 C12 146.4 12 139.8 12 133 C19.1875 129.25 19.1875 129.25 21.42260742 128.09472656 C25.26745597 126.0656019 28.83569294 124.03120046 32 121 C32.49493962 117.47355518 32.68953275 115.18752863 30.875 112.0625 C28.12091867 110.50185391 26.13555249 110.73901915 23 111 C20.10533273 112.35623159 20.10533273 112.35623159 17.3125 114.25 C3.59677199 122.68782022 -10.87962632 125.1134265 -26.71875 122.3515625 C-43.75255671 117.51429215 -56.49874106 107.02435309 -65.07666016 91.79150391 C-68.97187083 84.23384766 -71.13302651 75.86653304 -71.11352539 67.38354492 C-71.11344986 66.28278122 -71.11337433 65.18201752 -71.11329651 64.04789734 C-71.10813522 62.8706459 -71.10297394 61.69339447 -71.09765625 60.48046875 C-71.0962413 59.26676102 -71.09482635 58.05305328 -71.09336853 56.80256653 C-71.08777665 52.93085248 -71.07522558 49.05919653 -71.0625 45.1875 C-71.05748395 42.56054771 -71.05292123 39.93359451 -71.04882812 37.30664062 C-71.03780987 30.87107397 -71.02107976 24.43554114 -71 18 C-70.13012451 17.99589111 -69.26024902 17.99178223 -68.36401367 17.98754883 C-43.77156287 17.78449339 -19.4894251 17.01319022 0 0 Z " fill="#FCD3B1" transform="translate(372,199)"/>
<path d="M0 0 C0.71554047 -0.00100708 1.43108093 -0.00201416 2.16830444 -0.00305176 C12.55848632 0.00685628 22.4550148 0.33169383 32.5 3.25 C33.51320313 3.54003906 34.52640625 3.83007812 35.5703125 4.12890625 C46.11940746 7.56382954 55.40061801 13.68670253 60.78515625 23.62109375 C63.37037562 29.26409948 64.62082073 33.96847774 64.66113281 40.20507812 C64.67074036 41.40733032 64.6803479 42.60958252 64.69024658 43.8482666 C64.69449646 45.14615112 64.69874634 46.44403564 64.703125 47.78125 C64.70736607 48.77930916 64.70736607 48.77930916 64.71169281 49.79753113 C64.726671 53.32563674 64.73590636 56.85370169 64.74023438 60.38183594 C64.74568626 63.99481925 64.76964764 67.60741942 64.79820633 71.22028351 C64.81701099 74.0241802 64.82204788 76.82798838 64.82357025 79.63194275 C64.82800157 81.60139358 64.84656824 83.57079669 64.86553955 85.54016113 C64.83881695 96.46988326 62.98926925 106.47241462 58 116.25 C57.65888184 116.921521 57.31776367 117.59304199 56.96630859 118.28491211 C48.44124791 134.2234807 33.98391271 143.94853283 17.26953125 150.06640625 C1.54519917 154.41568959 -16.00274662 150.82385646 -30.0703125 143.3984375 C-45.03707995 134.48944591 -55.75275695 119.54732273 -60.14599609 102.84591675 C-62.70046075 91.51193334 -62.09725427 79.66144923 -62.02148438 68.10302734 C-61.99856296 64.56617118 -62.01194602 61.03052107 -62.03577423 57.49370766 C-62.05032058 54.73272824 -62.04558857 51.97202895 -62.03526306 49.2110405 C-62.03136312 47.28250066 -62.04333768 45.35394916 -62.05578613 43.42544556 C-61.940507 32.55559921 -59.32703484 23.26847747 -51.59765625 15.28515625 C-37.00160817 1.50997555 -19.17553172 0.01865671 0 0 Z " fill="#FDD3B1" transform="translate(137.5,137.75)"/>
<path d="M0 0 C6.93 0 13.86 0 21 0 C21.04898438 1.84207031 21.09796875 3.68414062 21.1484375 5.58203125 C21.2234623 7.99220299 21.29901025 10.40235849 21.375 12.8125 C21.4059375 14.02744141 21.436875 15.24238281 21.46875 16.49414062 C21.50742187 17.65751953 21.54609375 18.82089844 21.5859375 20.01953125 C21.6173584 21.09307861 21.6487793 22.16662598 21.68115234 23.27270508 C21.81592307 26.2160765 21.81592307 26.2160765 24 29 C26.78605387 29.92868462 28.54607421 30.13445085 31.4296875 30.17578125 C47.21393989 30.55364624 61.71593996 32.22649608 73.69921875 43.55078125 C84.45569387 54.90396594 88.1832771 66.39671553 88.11352539 81.87280273 C88.11367142 82.73213913 88.11381744 83.59147552 88.1139679 84.47685242 C88.11327545 87.29579255 88.10551453 90.11466526 88.09765625 92.93359375 C88.09578969 94.89657047 88.09436691 96.85954767 88.09336853 98.82252502 C88.08956206 103.97306621 88.07974783 109.12357891 88.06866455 114.27410889 C88.05841013 119.53625096 88.05386229 124.79839767 88.04882812 130.06054688 C88.03812381 140.37371039 88.02106996 150.68685282 88 161 C84.7 161 81.4 161 78 161 C77.94392578 158.88658203 77.94392578 158.88658203 77.88671875 156.73046875 C77.82106503 154.88278561 77.75461749 153.03513055 77.6875 151.1875 C77.66494141 150.25873047 77.64238281 149.32996094 77.61914062 148.37304688 C77.58369141 147.48037109 77.54824219 146.58769531 77.51171875 145.66796875 C77.48553467 144.84578857 77.45935059 144.0236084 77.43237305 143.17651367 C76.90215246 140.50744731 76.18369183 139.59454701 74 138 C70.5 137.5 70.5 137.5 67 138 C61.67534418 142.65374249 61.67534418 142.65374249 63 161 C28.35 161 -6.3 161 -42 161 C-42.103125 149.32625 -42.20625 137.6525 -42.3125 125.625 C-42.35802002 121.95713379 -42.40354004 118.28926758 -42.45043945 114.51025391 C-42.47302246 109.98510742 -42.47302246 109.98510742 -42.47721863 107.85775757 C-42.48482993 106.39145287 -42.50227565 104.92517685 -42.52787781 103.45907593 C-42.67591781 94.52460862 -42.66306176 86.45429599 -37 79 C-30.20135455 72.68951418 -24.73662239 71.57472492 -15.51953125 71.66015625 C-8.88295565 72.30097986 -5.12734211 75.6025945 -0.6875 80.3125 C1.37828774 82.85844381 2.60214292 85.22426749 3.6875 88.3125 C4.65871467 92.20427297 4.65871467 92.20427297 8 94 C11.52519894 94.17301706 11.52519894 94.17301706 15 93 C17.11009082 90.27135035 17.11009082 90.27135035 18.5 86.8125 C21.91257699 79.81863435 25.67201777 74.97329261 33 72 C40.51280077 71.03290505 47.19191918 71.53120989 53.8359375 75.296875 C58.12490696 78.67230944 60.59378799 83.18757597 63 88 C63.11664184 89.53494157 63.17866157 91.07425259 63.2109375 92.61328125 C63.23929688 93.53173828 63.26765625 94.45019531 63.296875 95.39648438 C63.34863938 97.32858982 63.39300369 99.26090878 63.4296875 101.19335938 C63.56630466 108.1364226 63.56630466 108.1364226 67 114 C71.59722798 114.66957338 71.59722798 114.66957338 75.69165039 112.80908203 C78.47935367 108.95446712 77.46627988 103.44838444 77.4375 98.875 C77.45748047 97.7715625 77.47746094 96.668125 77.49804688 95.53125 C77.4938222 88.41690072 76.49146859 83.20321698 73 77 C72.55398438 76.14148438 72.10796875 75.28296875 71.6484375 74.3984375 C66.37766678 66.02340918 58.52640829 60.59811135 49 58 C46.00629067 57.58878355 43.08136342 57.52259178 40.0625 57.5625 C39.27198242 57.56862305 38.48146484 57.57474609 37.66699219 57.58105469 C31.71097693 57.74083223 27.05733083 58.71104543 22 62 C20.906875 62.66 19.81375 63.32 18.6875 64 C15.95787133 65.9013749 15.95787133 65.9013749 13.875 68.3125 C13.25625 68.869375 12.6375 69.42625 12 70 C8.74219703 69.62843795 7.11632424 68.43443969 4.8125 66.1875 C0.94378865 62.70398502 -3.20548267 60.90413621 -8 59 C-8.99 58.505 -8.99 58.505 -10 58 C-22.60229495 57.07140985 -33.35543066 57.70158182 -43.8125 65.625 C-52.65715526 74.07944988 -55.89118489 83.63181608 -56.27480221 95.60347557 C-56.35291934 99.238127 -56.38656934 102.87247975 -56.4140625 106.5078125 C-56.43280716 108.08536759 -56.45238293 109.662913 -56.4727478 111.240448 C-56.52372718 115.36008964 -56.56353413 119.47976366 -56.60089111 123.59954834 C-56.64114715 127.81644475 -56.6921401 132.03321044 -56.7421875 136.25 C-56.838541 144.49991017 -56.9230734 152.7498859 -57 161 C-60.3 161 -63.6 161 -67 161 C-67.04646129 149.69894979 -67.08193911 138.39792252 -67.10362434 127.09679604 C-67.11403525 121.84851315 -67.12814504 116.6002959 -67.15087891 111.35205078 C-67.17270359 106.28162369 -67.18458886 101.2112595 -67.18975449 96.14078903 C-67.19343302 94.21202988 -67.20061603 92.28327395 -67.21146011 90.35454178 C-67.30775248 72.50865674 -66.13462223 57.61220795 -53.12890625 43.96484375 C-41.442939 33.17944645 -28.60509528 30.88333406 -13.25585938 30.5703125 C-11.96711914 30.52390625 -11.96711914 30.52390625 -10.65234375 30.4765625 C-9.87882568 30.45674316 -9.10530762 30.43692383 -8.30834961 30.41650391 C-5.22469512 29.86010892 -3.4243938 28.99861456 -1 27 C-0.21904633 24.11479011 -0.21904633 24.11479011 -0.29296875 20.80078125 C-0.26396484 19.59228516 -0.23496094 18.38378906 -0.20507812 17.13867188 C-0.19637695 15.2447168 -0.19637695 15.2447168 -0.1875 13.3125 C-0.16236328 12.03826172 -0.13722656 10.76402344 -0.11132812 9.45117188 C-0.0523383 6.30111499 -0.02333721 3.15052275 0 0 Z " fill="#FEFEFE" transform="translate(348,336)"/>
<path d="M0 0 C1.36125 0.495 1.36125 0.495 2.75 1 C5.90140402 -0.39511811 5.90140402 -0.39511811 7.6484375 -1.7265625 C13.65666382 -5.36723496 19.54001197 -6.55876587 26.5 -6.5 C27.6763501 -6.49250732 27.6763501 -6.49250732 28.87646484 -6.48486328 C39.07324191 -6.1816989 48.43856795 -2.18510061 55.75 5 C64.0968616 14.58089453 67.49700466 25.03954058 67.06640625 37.6796875 C65.57862041 53.29225492 56.06909907 63.24639856 45.3125 73.625 C43.10120357 75.77951426 40.89545385 77.93963548 38.69140625 80.1015625 C37.89802856 80.87755295 37.89802856 80.87755295 37.08862305 81.66921997 C33.66792166 85.03467241 30.45193949 88.50537465 27.34448242 92.15869141 C24.41762802 95.53862341 21.27249199 98.70191865 18.125 101.875 C17.48304688 102.53757812 16.84109375 103.20015625 16.1796875 103.8828125 C11.00277631 109.10215739 7.43165863 111.1211571 -0.08984375 111.4609375 C-7.48411793 109.88313578 -13.16916423 102.3866909 -18.25 97.30078125 C-19.21332552 96.34135092 -20.17687119 95.38214159 -21.140625 94.42314148 C-23.15445554 92.41674605 -25.16440279 90.40655517 -27.171875 88.39379883 C-29.72518105 85.83471378 -32.2896399 83.28714567 -34.85742188 80.74259663 C-36.84975359 78.7651126 -38.83499191 76.78062054 -40.81835938 74.7941494 C-42.2130522 73.40020912 -43.61425561 72.01279254 -45.015625 70.62556458 C-55.04537654 60.52326203 -62.59214326 49.82968866 -63.34375 35.2109375 C-62.96434447 22.21629798 -58.79961415 12.06552827 -49.4375 3.125 C-45.05690385 -0.61469445 -40.72318881 -3.21109782 -35.25 -5 C-34.67121094 -5.18949219 -34.09242188 -5.37898437 -33.49609375 -5.57421875 C-21.74534746 -7.80175152 -10.19342368 -6.27287611 0 0 Z " fill="#FD474D" transform="translate(271.25,6)"/>
<path d="M0 0 C0.83637497 0.00424484 1.67274994 0.00848969 2.5344696 0.01286316 C5.1938864 0.02959511 7.85253275 0.06723649 10.51171875 0.10546875 C12.31965048 0.12052271 14.12759414 0.13420987 15.93554688 0.14648438 C20.35706564 0.17948059 24.77801177 0.23122447 29.19921875 0.29296875 C27.58971905 4.35780133 24.68332622 7.03019778 21.60546875 10.01171875 C21.05814087 10.55147339 20.51081299 11.09122803 19.94689941 11.64733887 C17.61250494 13.94911938 15.26642032 16.23885285 12.92138672 18.52978516 C11.20782717 20.20715951 9.50030119 21.89051025 7.79296875 23.57421875 C7.26272095 24.08786987 6.73247314 24.601521 6.18615723 25.1307373 C2.37579796 28.89013018 0.41615521 31.34054062 -0.17578125 36.66796875 C0.51510859 43.34657052 5.21544444 47.59915947 9.83984375 52.12890625 C10.63041168 52.91522934 10.63041168 52.91522934 11.43695068 53.71743774 C13.10302566 55.37241709 14.77595458 57.02026164 16.44921875 58.66796875 C17.5877021 59.79640856 18.72572753 60.92531056 19.86328125 62.0546875 C22.63666387 64.80615083 25.41621109 67.55124258 28.19921875 70.29296875 C24.20078816 75.12238566 20.07483931 79.28424835 15.25 83.30078125 C11.98495392 86.4725403 10.34825345 89.14327248 9.76171875 93.66796875 C10.66268396 101.1331091 14.52372015 104.89491713 20.05859375 109.4765625 C22.22865041 111.31794269 24.20899646 113.2596511 26.19921875 115.29296875 C28.7793109 117.91337484 31.41025482 120.39620287 34.19921875 122.79296875 C37.71063523 125.81059228 40.95229277 129.02655956 44.19921875 132.32421875 C46.13812877 134.2328333 48.13621426 136.02007427 50.19921875 137.79296875 C53.70862833 140.80886761 56.9495535 144.02125059 60.19140625 147.3203125 C62.72670622 149.81122006 65.40545154 152.09640142 68.14453125 154.359375 C71.06443505 157.10719321 73.58985022 160.24870546 76.19921875 163.29296875 C45.17921875 163.29296875 14.15921875 163.29296875 -17.80078125 163.29296875 C-17.96199339 124.91552394 -17.96199339 124.91552394 -17.99609375 108.84375 C-18.01983597 97.74292619 -18.04775954 86.64222375 -18.10253906 75.54150391 C-18.14241427 67.45719328 -18.16821583 59.37298105 -18.17713523 51.28857481 C-18.18234883 47.00809972 -18.19459752 42.72790608 -18.22370148 38.44752121 C-18.25088148 34.4173885 -18.2592211 30.3876528 -18.25321198 26.35743713 C-18.25431107 24.87960781 -18.26224985 23.40176502 -18.27760315 21.92401505 C-18.29756735 19.90308529 -18.29032125 17.8819418 -18.28179932 15.8609314 C-18.28548649 14.7308132 -18.28917366 13.600695 -18.29297256 12.4363308 C-17.54723419 7.67369963 -15.24704731 4.51357173 -11.60083008 1.4362793 C-7.6776086 -0.16564294 -4.1963892 -0.08067608 0 0 Z " fill="#8FA6B9" transform="translate(42.80078125,333.70703125)"/>
<path d="M0 0 C6.93 0 13.86 0 21 0 C21.04898438 1.84207031 21.09796875 3.68414062 21.1484375 5.58203125 C21.2234623 7.99220299 21.29901025 10.40235849 21.375 12.8125 C21.4059375 14.02744141 21.436875 15.24238281 21.46875 16.49414062 C21.50742187 17.65751953 21.54609375 18.82089844 21.5859375 20.01953125 C21.6173584 21.09307861 21.6487793 22.16662598 21.68115234 23.27270508 C21.81592307 26.2160765 21.81592307 26.2160765 24 29 C26.78605387 29.92868462 28.54607421 30.13445085 31.4296875 30.17578125 C47.21393989 30.55364624 61.71593996 32.22649608 73.69921875 43.55078125 C84.45569387 54.90396594 88.1832771 66.39671553 88.11352539 81.87280273 C88.11367142 82.73213913 88.11381744 83.59147552 88.1139679 84.47685242 C88.11327545 87.29579255 88.10551453 90.11466526 88.09765625 92.93359375 C88.09578969 94.89657047 88.09436691 96.85954767 88.09336853 98.82252502 C88.08956206 103.97306621 88.07974783 109.12357891 88.06866455 114.27410889 C88.05841013 119.53625096 88.05386229 124.79839767 88.04882812 130.06054688 C88.03812381 140.37371039 88.02106996 150.68685282 88 161 C84.7 161 81.4 161 78 161 C77.94392578 158.88658203 77.94392578 158.88658203 77.88671875 156.73046875 C77.82106503 154.88278561 77.75461749 153.03513055 77.6875 151.1875 C77.66494141 150.25873047 77.64238281 149.32996094 77.61914062 148.37304688 C77.58369141 147.48037109 77.54824219 146.58769531 77.51171875 145.66796875 C77.48553467 144.84578857 77.45935059 144.0236084 77.43237305 143.17651367 C76.90548566 140.52422624 76.12770581 139.62729328 74 138 C71.39388923 137.27802838 71.39388923 137.27802838 69 137 C69.66 136.67 70.32 136.34 71 136 C71 129.4 71 122.8 71 116 C70.34 115.67 69.68 115.34 69 115 C70.134375 114.71125 71.26875 114.4225 72.4375 114.125 C73.613125 113.75375 74.78875 113.3825 76 113 C78.07493283 108.85013433 77.27366141 103.49715071 77.3125 98.9375 C77.34150391 97.82955078 77.37050781 96.72160156 77.40039062 95.58007812 C77.45544945 88.41819563 76.53183533 83.24098417 73 77 C72.55398438 76.14148438 72.10796875 75.28296875 71.6484375 74.3984375 C66.37766678 66.02340918 58.52640829 60.59811135 49 58 C46.00629067 57.58878355 43.08136342 57.52259178 40.0625 57.5625 C39.27198242 57.56862305 38.48146484 57.57474609 37.66699219 57.58105469 C31.71097693 57.74083223 27.05733083 58.71104543 22 62 C20.906875 62.66 19.81375 63.32 18.6875 64 C15.95787133 65.9013749 15.95787133 65.9013749 13.875 68.3125 C13.25625 68.869375 12.6375 69.42625 12 70 C8.74219703 69.62843795 7.11632424 68.43443969 4.8125 66.1875 C0.94378865 62.70398502 -3.20548267 60.90413621 -8 59 C-8.99 58.505 -8.99 58.505 -10 58 C-22.60229495 57.07140985 -33.35543066 57.70158182 -43.8125 65.625 C-52.65715526 74.07944988 -55.89118489 83.63181608 -56.27480221 95.60347557 C-56.35291934 99.238127 -56.38656934 102.87247975 -56.4140625 106.5078125 C-56.43280716 108.08536759 -56.45238293 109.662913 -56.4727478 111.240448 C-56.52372718 115.36008964 -56.56353413 119.47976366 -56.60089111 123.59954834 C-56.64114715 127.81644475 -56.6921401 132.03321044 -56.7421875 136.25 C-56.838541 144.49991017 -56.9230734 152.7498859 -57 161 C-60.3 161 -63.6 161 -67 161 C-67.04646129 149.69894979 -67.08193911 138.39792252 -67.10362434 127.09679604 C-67.11403525 121.84851315 -67.12814504 116.6002959 -67.15087891 111.35205078 C-67.17270359 106.28162369 -67.18458886 101.2112595 -67.18975449 96.14078903 C-67.19343302 94.21202988 -67.20061603 92.28327395 -67.21146011 90.35454178 C-67.30775248 72.50865674 -66.13462223 57.61220795 -53.12890625 43.96484375 C-41.442939 33.17944645 -28.60509528 30.88333406 -13.25585938 30.5703125 C-11.96711914 30.52390625 -11.96711914 30.52390625 -10.65234375 30.4765625 C-9.87882568 30.45674316 -9.10530762 30.43692383 -8.30834961 30.41650391 C-5.22469512 29.86010892 -3.4243938 28.99861456 -1 27 C-0.21904633 24.11479011 -0.21904633 24.11479011 -0.29296875 20.80078125 C-0.26396484 19.59228516 -0.23496094 18.38378906 -0.20507812 17.13867188 C-0.19637695 15.2447168 -0.19637695 15.2447168 -0.1875 13.3125 C-0.16236328 12.03826172 -0.13722656 10.76402344 -0.11132812 9.45117188 C-0.0523383 6.30111499 -0.02333721 3.15052275 0 0 Z " fill="#FBB688" transform="translate(348,336)"/>
<path d="M0 0 C1.98 0 3.96 0 6 0 C8.67075591 9.74534489 11.07970747 19.50448621 13.25 29.375 C15.72756249 40.53238564 18.34099223 51.64972429 21.0625 62.75 C23.76740778 73.79344449 26.34375834 84.85715809 28.78149414 95.96313477 C32.62063494 113.43064154 36.66392696 130.85211758 41.0625 148.1875 C43.44250432 157.57333307 45.59560917 166.99686713 47.66674805 176.45532227 C49.95090713 186.86643685 52.37028304 197.24362524 54.81616211 207.61767578 C55.10112549 208.8292334 55.38608887 210.04079102 55.6796875 211.2890625 C55.93476074 212.36881348 56.18983398 213.44856445 56.45263672 214.56103516 C57 217 57 217 57 218 C45.45 218 33.9 218 22 218 C21.9906543 215.29159912 21.98130859 212.58319824 21.97167969 209.79272461 C21.93774322 200.79209805 21.88210281 191.79169675 21.81609726 182.79125118 C21.7767757 177.34023361 21.74451257 171.88937388 21.72900391 166.43823242 C21.71373579 161.16657966 21.67911255 155.89536132 21.63169098 150.62390327 C21.61698113 148.62396609 21.60896504 146.62396685 21.60811615 144.62397575 C21.59028797 123.6604829 18.23219878 106.97724147 3.2421875 91.1796875 C-10.35304201 77.96341909 -26.53139923 73.92343004 -45 73 C-45 66.4 -45 59.8 -45 53 C-37.8125 49.25 -37.8125 49.25 -35.57739258 48.09472656 C-31.74199881 46.07059168 -28.0980116 44.08590999 -25 41 C-24.69452474 38.96585823 -24.69452474 38.96585823 -25.1875 36.875 C-25.48099419 32.30702632 -24.12838243 30.31409183 -21.25 26.8125 C-20.51394531 25.98492187 -19.77789062 25.15734375 -19.01953125 24.3046875 C-17.32964171 22.37618687 -16.14897832 20.66832792 -14.9375 18.4375 C-13 16 -13 16 -9.4375 15.375 C-8.303125 15.25125 -7.16875 15.1275 -6 15 C-3.18535983 12.08971672 -2.28129719 9.12518877 -1.3125 5.25 C-0.93544922 3.77273438 -0.93544922 3.77273438 -0.55078125 2.265625 C-0.36902344 1.51796875 -0.18726563 0.7703125 0 0 Z " fill="#FCFCFC" transform="translate(429,279)"/>
<path d="M0 0 C4.63673405 3.48006503 4.63673405 3.48006503 5.17932129 6.36254883 C5.18137573 7.12849365 5.18343018 7.89443848 5.18554688 8.68359375 C5.19565796 9.55459717 5.20576904 10.42560059 5.21618652 11.32299805 C5.21316528 12.26054932 5.21014404 13.19810059 5.20703125 14.1640625 C5.21786743 15.12932861 5.22870361 16.09459473 5.23986816 17.08911133 C5.28581616 21.22309453 5.29722378 25.35701796 5.31201172 29.49121094 C5.32767649 32.50739095 5.36067307 35.52304087 5.39453125 38.5390625 C5.39151001 39.47661377 5.38848877 40.41416504 5.38537598 41.38012695 C5.39548706 42.25113037 5.40559814 43.12213379 5.41601562 44.01953125 C5.41807007 44.78547607 5.42012451 45.5514209 5.42224121 46.34057617 C5.90542433 48.90747677 6.72753385 49.80001212 8.80078125 51.3515625 C12.23280396 51.63756439 14.52508 51.44346292 17.80078125 50.3515625 C18.6952059 47.66828856 18.94659812 46.01006511 19.00610352 43.24731445 C19.02604874 42.42669022 19.04599396 41.60606598 19.06654358 40.76057434 C19.08325607 39.87923325 19.09996857 38.99789215 19.1171875 38.08984375 C19.1379686 37.18405075 19.15874969 36.27825775 19.18016052 35.34501648 C19.24554683 32.45144234 19.30449029 29.55777743 19.36328125 26.6640625 C19.40647685 24.70246457 19.45009148 22.74087582 19.49414062 20.77929688 C19.60121707 15.97014511 19.70251539 11.16090204 19.80078125 6.3515625 C21.78078125 6.3515625 23.76078125 6.3515625 25.80078125 6.3515625 C25.8147998 8.18315918 25.8147998 8.18315918 25.82910156 10.05175781 C25.86899048 14.58451749 25.93474618 19.11659765 26.00830078 23.64892578 C26.03651678 25.61009997 26.05772819 27.57138801 26.07177734 29.53271484 C26.09319824 32.35313227 26.13984334 35.17217993 26.19140625 37.9921875 C26.19263489 38.86836731 26.19386353 39.74454712 26.19512939 40.64727783 C26.31391886 45.61567161 26.31391886 45.61567161 28.61230469 49.94042969 C30.87468655 51.68649871 30.87468655 51.68649871 34.42578125 51.2890625 C38.05595049 50.676478 38.05595049 50.676478 39.80078125 47.3515625 C40.09950481 45.34950028 40.09950481 45.34950028 40.05615234 43.14306641 C40.06659073 41.87627548 40.06659073 41.87627548 40.07723999 40.58389282 C40.07624298 39.67448944 40.07524597 38.76508606 40.07421875 37.828125 C40.09450869 35.90103587 40.11535949 33.97395258 40.13671875 32.046875 C40.15931812 29.00971552 40.17578853 25.97278657 40.18164062 22.93554688 C40.1911665 20.00348256 40.22494642 17.07245656 40.26171875 14.140625 C40.25667328 13.23527008 40.25162781 12.32991516 40.24642944 11.39712524 C40.31356632 7.09032268 40.42243748 4.93047842 42.83447266 1.23974609 C43.80779541 0.30509521 43.80779541 0.30509521 44.80078125 -0.6484375 C48.94376792 -0.05009025 51.98272502 1.35820535 55.61328125 3.4140625 C56.58910156 3.96191406 57.56492187 4.50976562 58.5703125 5.07421875 C59.67439453 5.70650391 59.67439453 5.70650391 60.80078125 6.3515625 C59.25301635 12.39278858 57.51339894 18.32963418 55.50390625 24.234375 C55.10300781 25.42160156 54.70210938 26.60882813 54.2890625 27.83203125 C53.45953549 30.2735098 52.61825891 32.71102596 51.765625 35.14453125 C49.44009632 42.10596728 48.27718375 47.12224782 49.80078125 54.3515625 C51.95703125 54.4765625 51.95703125 54.4765625 54.11328125 54.6015625 C54.91378906 54.64796875 55.71429688 54.694375 56.5390625 54.7421875 C58.87991113 54.56661762 58.87991113 54.56661762 60.26416016 52.84155273 C62.34768532 49.46534155 63.46376202 45.87931048 64.6484375 42.12109375 C64.90580185 41.3300676 65.1631662 40.53904144 65.42832947 39.7240448 C66.24725957 37.20633631 67.05641753 34.68566194 67.86328125 32.1640625 C68.92898481 28.83440948 70.00438069 25.5081262 71.0859375 22.18359375 C71.32868912 21.4138472 71.57144073 20.64410065 71.82154846 19.85102844 C72.42465826 17.9984682 73.10578306 16.17164448 73.80078125 14.3515625 C76.4856991 13.00910358 78.88583455 13.32606877 81.828125 13.4140625 C84.01550235 13.43889266 84.01550235 13.43889266 86.80078125 12.3515625 C87.46078125 8.7215625 88.12078125 5.0915625 88.80078125 1.3515625 C94.09090249 5.75999687 98.98886553 10.42716044 103.80078125 15.3515625 C98.19865193 22.07411768 92.26938531 28.28565621 85.61328125 33.9765625 C80.17609282 38.66453205 76.45492092 42.62296637 75.17578125 49.9140625 C75.23520875 55.31206048 78.67098292 58.19490684 82.265625 61.875 C83.10222656 62.69226563 83.93882812 63.50953125 84.80078125 64.3515625 C85.58582031 65.14820313 86.37085938 65.94484375 87.1796875 66.765625 C89.03659947 68.64578989 90.9092124 70.5063809 92.80078125 72.3515625 C91.4365663 75.44021592 89.92376845 77.43005606 87.44921875 79.71484375 C86.77109131 80.34656494 86.09296387 80.97828613 85.39428711 81.62915039 C84.66218018 82.30067139 83.93007324 82.97219238 83.17578125 83.6640625 C81.62239163 85.10676631 80.06900632 86.54947475 78.515625 87.9921875 C77.72655762 88.72115234 76.93749023 89.45011719 76.12451172 90.20117188 C73.30286037 92.81234072 70.49858238 95.44154734 67.69677734 98.07397461 C65.73744707 99.91484625 63.7752086 101.75257508 61.8125 103.58984375 C58.99699122 106.22716458 56.1882095 108.87145772 53.3828125 111.51953125 C52.65779541 112.20265381 51.93277832 112.88577637 51.18579102 113.58959961 C49.79802749 114.89738225 48.4117143 116.20670625 47.02709961 117.51782227 C46.4006958 118.10748779 45.77429199 118.69715332 45.12890625 119.3046875 C44.58137695 119.82192383 44.03384766 120.33916016 43.46972656 120.87207031 C41.65544753 122.48039842 39.75758796 123.92154735 37.80078125 125.3515625 C40.27084041 115.69833081 43.45822327 106.33967778 46.74804688 96.93945312 C47.14056641 95.79025391 47.53308594 94.64105469 47.9375 93.45703125 C48.29545654 92.42731201 48.65341309 91.39759277 49.0222168 90.33666992 C50.15344704 85.99940051 50.21855982 82.60489821 48.80078125 78.3515625 C47.36422271 78.27024787 45.92633295 78.21222691 44.48828125 78.1640625 C43.68777344 78.12925781 42.88726562 78.09445312 42.0625 78.05859375 C39.22080904 78.42668843 38.61797576 79.18710642 36.80078125 81.3515625 C35.89652509 83.24273726 35.89652509 83.24273726 35.2668457 85.36401367 C35.00680252 86.16461716 34.74675934 86.96522064 34.47883606 87.79008484 C34.20996078 88.64955215 33.94108551 89.50901947 33.6640625 90.39453125 C33.37975876 91.2781282 33.09545502 92.16172516 32.80253601 93.07209778 C31.89747714 95.89173961 31.00524984 98.71525562 30.11328125 101.5390625 C29.50149242 103.45274314 28.88887207 105.36615817 28.27539062 107.27929688 C26.77419214 111.96702581 25.28448787 116.65826935 23.80078125 121.3515625 C23.14078125 121.3515625 22.48078125 121.3515625 21.80078125 121.3515625 C12.53948981 93.67346984 3.30163143 65.98920446 -5.69384766 38.22338867 C-6.09301392 36.99224083 -6.09301392 36.99224083 -6.50024414 35.73622131 C-7.0115837 34.15703685 -7.52156497 32.57741177 -8.0300293 30.99729919 C-9.22050652 27.30887458 -10.43999947 23.63559 -11.72802734 19.97998047 C-11.96768723 19.29165634 -12.20734711 18.60333221 -12.45426941 17.89414978 C-13.10150557 16.04429183 -13.76062144 14.19860227 -14.4206543 12.35327148 C-15.18249097 9.41605547 -15.46434115 8.07701325 -14.19921875 5.3515625 C-11.6171875 3.578125 -11.6171875 3.578125 -8.38671875 1.9765625 C-7.32839844 1.43257813 -6.27007812 0.88859375 -5.1796875 0.328125 C-2.19921875 -0.6484375 -2.19921875 -0.6484375 0 0 Z " fill="#FCFCFC" transform="translate(116.19921875,354.6484375)"/>
<path d="M0 0 C1.65 0 3.3 0 5 0 C5.20753906 0.78761719 5.41507812 1.57523437 5.62890625 2.38671875 C11.24072478 22.22766711 22.59277734 38.18666547 40.4453125 48.67578125 C43.5490159 50.28458163 46.78677448 51.62290335 50 53 C50 59.6 50 66.2 50 73 C46.968125 73.226875 43.93625 73.45375 40.8125 73.6875 C23.4087018 75.28888626 8.31362097 82.4028959 -3 96 C-14.81717313 111.87732302 -16.75074421 127.7189394 -16.70703125 146.90625 C-16.72017758 148.96847983 -16.73549067 151.03069687 -16.75285339 153.09289551 C-16.79237293 158.46530071 -16.80287234 163.83736656 -16.80688477 169.2098999 C-16.81627908 174.71425457 -16.85373136 180.21841496 -16.88867188 185.72265625 C-16.95291079 196.48180828 -16.98382675 207.24066828 -17 218 C-26.9 218 -36.8 218 -47 218 C-46.32642066 212.61136529 -45.5586326 207.42420521 -44.43359375 202.13671875 C-44.2792688 201.40010513 -44.12494385 200.66349152 -43.96594238 199.90455627 C-43.46020792 197.49806333 -42.94913845 195.0927441 -42.4375 192.6875 C-42.26115021 191.85287231 -42.08480042 191.01824463 -41.90310669 190.1583252 C-39.21439415 177.43717753 -36.37425899 164.7558975 -33.43655396 152.09020996 C-30.75613133 140.52040233 -28.2943789 128.9174556 -25.93771362 117.27770996 C-23.87896858 107.11816578 -21.6547429 97.01097219 -19.2734375 86.92163086 C-16.79924919 76.34135019 -14.63861401 65.70129976 -12.46923828 55.05541992 C-10.71750057 46.46184475 -8.91265859 37.88524872 -6.97265625 29.33203125 C-6.18512823 25.85538314 -5.43112762 22.37218227 -4.68359375 18.88671875 C-4.45623535 17.82864014 -4.22887695 16.77056152 -3.99462891 15.68041992 C-3.54821027 13.59899703 -3.10379463 11.51714329 -2.66162109 9.43481445 C-2.35925537 8.02848755 -2.35925537 8.02848755 -2.05078125 6.59375 C-1.87200439 5.75521484 -1.69322754 4.91667969 -1.5090332 4.05273438 C-1 2 -1 2 0 0 Z " fill="#E7E2EB" transform="translate(283,279)"/>
<path d="M0 0 C1.36125 0.495 1.36125 0.495 2.75 1 C5.90140402 -0.39511811 5.90140402 -0.39511811 7.6484375 -1.7265625 C13.65666382 -5.36723496 19.54001197 -6.55876587 26.5 -6.5 C27.6763501 -6.49250732 27.6763501 -6.49250732 28.87646484 -6.48486328 C39.07324191 -6.1816989 48.43856795 -2.18510061 55.75 5 C64.0968616 14.58089453 67.49700466 25.03954058 67.06640625 37.6796875 C65.57862041 53.29225492 56.06909907 63.24639856 45.3125 73.625 C43.10120357 75.77951426 40.89545385 77.93963548 38.69140625 80.1015625 C37.89802856 80.87755295 37.89802856 80.87755295 37.08862305 81.66921997 C33.66792166 85.03467241 30.45193949 88.50537465 27.34448242 92.15869141 C24.41762802 95.53862341 21.27249199 98.70191865 18.125 101.875 C17.48304688 102.53757812 16.84109375 103.20015625 16.1796875 103.8828125 C11.00277631 109.10215739 7.43165863 111.1211571 -0.08984375 111.4609375 C-7.48411793 109.88313578 -13.16916423 102.3866909 -18.25 97.30078125 C-19.21332552 96.34135092 -20.17687119 95.38214159 -21.140625 94.42314148 C-23.15445554 92.41674605 -25.16440279 90.40655517 -27.171875 88.39379883 C-29.72518105 85.83471378 -32.2896399 83.28714567 -34.85742188 80.74259663 C-36.84975359 78.7651126 -38.83499191 76.78062054 -40.81835938 74.7941494 C-42.2130522 73.40020912 -43.61425561 72.01279254 -45.015625 70.62556458 C-55.04537654 60.52326203 -62.59214326 49.82968866 -63.34375 35.2109375 C-62.96434447 22.21629798 -58.79961415 12.06552827 -49.4375 3.125 C-45.05690385 -0.61469445 -40.72318881 -3.21109782 -35.25 -5 C-34.67121094 -5.18949219 -34.09242188 -5.37898437 -33.49609375 -5.57421875 C-21.74534746 -7.80175152 -10.19342368 -6.27287611 0 0 Z M-43.06640625 19.19921875 C-47.46805793 25.89612113 -48.28520858 32.15050581 -47.25 40 C-42.61010524 55.17492151 -26.06232336 67.30808537 -15.1875 78.125 C-13.54208424 79.76539085 -11.89689999 81.40601395 -10.25195312 83.046875 C-6.25396822 87.03393258 -2.2531313 91.01810994 1.75 95 C7.18443708 90.44313994 7.18443708 90.44313994 12.1953125 85.43359375 C12.78723389 84.79365479 13.37915527 84.15371582 13.98901367 83.49438477 C14.61138916 82.81561279 15.23376465 82.13684082 15.875 81.4375 C20.56653699 76.35975393 25.32926414 71.39184525 30.28515625 66.5703125 C31.22278809 65.65451416 32.16041992 64.73871582 33.12646484 63.79516602 C34.9587477 62.01396556 36.80110132 60.24304865 38.65478516 58.48413086 C44.97232082 52.32408447 49.85243558 46.34995637 51.34375 37.4609375 C51.08113597 28.81655912 50.48371198 22.58900427 44.375 16.1875 C37.83151552 10.13994276 32.33567486 8.61765815 23.5625 8.72265625 C17.52648356 9.31787454 13.51690003 12.19898711 9.1875 16.25 C6.70259206 18.44322575 5.7364951 19.00325118 2.375 19.8125 C-2.16564759 18.79476864 -4.54165234 16.69242213 -8.0703125 13.7578125 C-13.43366718 9.43252646 -18.68066896 8.37735973 -25.40625 8.58984375 C-32.70927138 9.64316414 -38.64117334 13.3448738 -43.06640625 19.19921875 Z " fill="#010000" transform="translate(271.25,6)"/>
<path d="M0 0 C5.44428237 -0.09916726 10.88803448 -0.17160909 16.33300781 -0.21972656 C18.18368696 -0.23979339 20.03430309 -0.26705345 21.88476562 -0.30175781 C24.55093977 -0.35049433 27.21627287 -0.37301787 29.8828125 -0.390625 C30.70492218 -0.41127014 31.52703186 -0.43191528 32.37405396 -0.45318604 C37.73307139 -0.45526084 40.75333967 0.43199256 45 4 C48.63194506 9.03785928 47.9113805 13.17297648 47 19 C46.20067133 23.37065787 45.29551386 27.7159246 44.375 32.0625 C44.10993652 33.32835937 43.84487305 34.59421875 43.57177734 35.8984375 C41.07248642 47.8024758 38.46545881 59.6832068 35.8515625 71.5625 C33.87702112 80.53648722 31.93780211 89.51802061 30 98.5 C27.13766616 111.76276412 24.25402221 125.02067954 21.34570312 138.2734375 C21.08080078 139.48128906 20.81589844 140.68914062 20.54296875 141.93359375 C20.31633545 142.96540771 20.08970215 143.99722168 19.85620117 145.06030273 C18.55724648 151.0372722 17.28158253 157.01928152 16 163 C-4.79 163 -25.58 163 -47 163 C-45.35 161.35 -43.7 159.7 -42 158 C-41.05498653 157.04526263 -40.11078122 156.08972344 -39.16796875 155.1328125 C-34.18435628 150.09615642 -29.19142021 145.17125061 -23.79296875 140.57421875 C-21.33279825 138.41419977 -19.07035076 136.08069726 -16.77734375 133.74609375 C-14.93406426 131.93522357 -13.02177201 130.24678646 -11.0625 128.5625 C-8.25423653 126.14382221 -5.60029407 123.64100317 -3 121 C-0.44009866 118.40017817 2.1677954 115.93731602 4.9375 113.5625 C14.90938797 105.77584252 14.90938797 105.77584252 20.27758789 94.95483398 C19.86579839 87.42876015 15.81529567 83.93059295 10.4375 79.0625 C8.84911072 77.57822577 7.2642679 76.09014401 5.68359375 74.59765625 C4.97775146 73.95320557 4.27190918 73.30875488 3.54467773 72.64477539 C2 71 2 71 2 69 C3.43798828 67.58105469 3.43798828 67.58105469 5.4453125 65.921875 C10.15394478 61.91673604 14.51726147 57.630674 18.875 53.25 C19.63296875 52.49589844 20.3909375 51.74179687 21.171875 50.96484375 C21.89632812 50.23910156 22.62078125 49.51335937 23.3671875 48.765625 C24.01800293 48.11368164 24.66881836 47.46173828 25.33935547 46.79003906 C29.16515758 42.66613711 29.77071741 39.56459912 29.59741211 34.09350586 C28.87950024 30.37603088 27.71827465 29.00351422 25.1171875 26.2890625 C24.30113037 25.42885498 23.48507324 24.56864746 22.64428711 23.68237305 C21.77167236 22.79718994 20.89905762 21.91200684 20 21 C19.13705322 20.12190674 18.27410645 19.24381348 17.38500977 18.33911133 C14.75144787 15.68898155 12.09880357 13.05975289 9.4375 10.4375 C7.64229344 8.66763157 5.84919376 6.89562256 4.05859375 5.12109375 C2.88768188 3.96758423 2.88768188 3.96758423 1.69311523 2.79077148 C0 1 0 1 0 0 Z " fill="#8DA4B8" transform="translate(205,334)"/>
<path d="M0 0 C5.29012124 4.40843437 10.18808428 9.07559794 15 14 C9.39787068 20.72255518 3.46860406 26.93409371 -3.1875 32.625 C-8.62468843 37.31296955 -12.34586033 41.27140387 -13.625 48.5625 C-13.5655725 53.96049798 -10.12979833 56.84334434 -6.53515625 60.5234375 C-5.69855469 61.34070313 -4.86195313 62.15796875 -4 63 C-3.21496094 63.79664063 -2.42992187 64.59328125 -1.62109375 65.4140625 C0.23581822 67.29422739 2.10843115 69.1548184 4 71 C2.63578505 74.08865342 1.1229872 76.07849356 -1.3515625 78.36328125 C-2.02968994 78.99500244 -2.70781738 79.62672363 -3.40649414 80.27758789 C-4.50465454 81.28486938 -4.50465454 81.28486938 -5.625 82.3125 C-7.17838962 83.75520381 -8.73177493 85.19791225 -10.28515625 86.640625 C-11.07422363 87.36958984 -11.86329102 88.09855469 -12.67626953 88.84960938 C-15.49792088 91.46077822 -18.30219887 94.08998484 -21.10400391 96.72241211 C-23.06333418 98.56328375 -25.02557265 100.40101258 -26.98828125 102.23828125 C-29.80379003 104.87560208 -32.61257175 107.51989522 -35.41796875 110.16796875 C-36.14298584 110.85109131 -36.86800293 111.53421387 -37.61499023 112.23803711 C-39.00275376 113.54581975 -40.38906695 114.85514375 -41.77368164 116.16625977 C-42.40008545 116.75592529 -43.02648926 117.34559082 -43.671875 117.953125 C-44.2194043 118.47036133 -44.76693359 118.98759766 -45.33105469 119.52050781 C-47.14533372 121.12883592 -49.04319329 122.56998485 -51 124 C-48.52994084 114.34676831 -45.34255798 104.98811528 -42.05273438 95.58789062 C-41.66021484 94.43869141 -41.26769531 93.28949219 -40.86328125 92.10546875 C-40.50532471 91.07574951 -40.14736816 90.04603027 -39.77856445 88.98510742 C-38.64733421 84.64783801 -38.58222143 81.25333571 -40 77 C-42.31 76.67 -44.62 76.34 -47 76 C-46.36932617 75.75757568 -45.73865234 75.51515137 -45.08886719 75.26538086 C-42.86758609 74.18770522 -42.86758609 74.18770522 -42.12207031 72.07641602 C-41.94256836 71.30998779 -41.76306641 70.54355957 -41.578125 69.75390625 C-41.35640625 68.91666016 -41.1346875 68.07941406 -40.90625 67.21679688 C-40.47054686 65.45453329 -40.04853196 63.68882608 -39.640625 61.91992188 C-38.95809426 59.39727277 -38.31706253 57.26095734 -37 55 C-35.15429688 54.05029297 -35.15429688 54.05029297 -33.046875 53.46484375 C-29.95512286 52.61207539 -29.95512286 52.61207539 -27.77099609 50.37915039 C-26.67270978 47.9555309 -25.82083664 45.53227672 -25 43 C-24.60264648 41.83597656 -24.20529297 40.67195313 -23.79589844 39.47265625 C-22.21502054 34.79740523 -20.70548491 30.09956878 -19.20361328 25.3984375 C-18.55617345 23.37808472 -17.89971522 21.36083796 -17.2421875 19.34375 C-16.66766846 17.55227539 -16.66766846 17.55227539 -16.08154297 15.72460938 C-15 13 -15 13 -13 12 C-10.9907774 12 -8.98098092 12.00243795 -6.97265625 12.0625 C-4.7852789 12.08733016 -4.7852789 12.08733016 -2 11 C-1.34 7.37 -0.68 3.74 0 0 Z " fill="#B5C8CF" transform="translate(205,356)"/>
<path d="M0 0 C1.19928244 2.38305692 2.36378973 4.77305319 3.5 7.1875 C4.70021344 10.0912513 4.70021344 10.0912513 7 11 C8.54023996 11.06950541 10.08334988 11.08452357 11.625 11.0625 C12.44226563 11.05347656 13.25953125 11.04445313 14.1015625 11.03515625 C14.72804688 11.02355469 15.35453125 11.01195312 16 11 C18.5257351 16.7794762 20.56465568 22.67125505 22.41796875 28.6953125 C25.33173353 38.03531674 28.41100807 47.31852528 31.51171875 56.59765625 C31.75972733 57.34015688 32.0077359 58.08265751 32.26325989 58.84765816 C34.06922082 64.25331504 35.87806444 69.65800537 37.6875 75.0625 C39.50948386 80.50465127 41.33040925 85.94715245 43.14881325 91.39050102 C43.86705416 93.53883732 44.58712357 95.6865546 45.30729675 97.83424377 C46.55193047 101.55168831 47.77956684 105.27453173 49 109 C49.33609283 110.01359589 49.67218567 111.02719177 50.01846313 112.07150269 C50.30345673 112.96370514 50.58845032 113.85590759 50.88208008 114.77514648 C51.12597977 115.52948471 51.36987946 116.28382294 51.62117004 117.0610199 C52 119 52 119 51 122 C50.5153125 121.50371094 50.030625 121.00742187 49.53125 120.49609375 C46.11886318 117.03777095 42.68622389 113.66693442 39 110.5 C35.48858352 107.48237647 32.24692598 104.26640919 29 100.96875 C27.06108998 99.06013545 25.06300449 97.27289448 23 95.5 C19.49278765 92.48598939 16.25460935 89.27432816 13.01171875 85.98046875 C10.38855498 83.39805315 7.6219548 81.0085992 4.83203125 78.609375 C2.43948191 76.50760458 0.21633026 74.28559058 -2 72 C-0.15090909 67.18776962 3.86871658 64.09276281 7.56835938 60.68554688 C12.07985883 56.3631855 14.605272 52.177365 15.39453125 45.82421875 C14.91474906 42.38973834 14.08442456 41.29320056 11.6875 38.8125 C10.88828125 37.97589844 10.0890625 37.13929688 9.265625 36.27734375 C8.1788934 35.18309523 7.09004873 34.09094417 6 33 C5.24396484 32.23703613 4.48792969 31.47407227 3.70898438 30.68798828 C-1.83334505 25.09765947 -7.40598376 19.53857928 -13 14 C-9.81968878 10.2341894 -6.64858175 6.51561011 -3.125 3.0625 C-2.23167969 2.18271484 -2.23167969 2.18271484 -1.3203125 1.28515625 C-0.66675781 0.64900391 -0.66675781 0.64900391 0 0 Z " fill="#B5C7CE" transform="translate(71,357)"/>
<path d="M0 0 C0.83637497 0.00424484 1.67274994 0.00848969 2.5344696 0.01286316 C5.1938864 0.02959511 7.85253275 0.06723649 10.51171875 0.10546875 C12.31965048 0.12052271 14.12759414 0.13420987 15.93554688 0.14648438 C20.35706564 0.17948059 24.77801177 0.23122447 29.19921875 0.29296875 C28.86921875 0.95296875 28.53921875 1.61296875 28.19921875 2.29296875 C18.62921875 2.29296875 9.05921875 2.29296875 -0.80078125 2.29296875 C-2.87332798 6.43806222 -3.05760645 8.217161 -3.07925415 12.73431396 C-3.08504655 13.37884938 -3.09083895 14.0233848 -3.09680688 14.6874516 C-3.11379698 16.84474516 -3.11668246 19.00182466 -3.11962891 21.15917969 C-3.12892778 22.70655338 -3.1390964 24.25392206 -3.15007019 25.80128479 C-3.17738887 30.00131655 -3.19252513 34.20131473 -3.20549822 38.40141201 C-3.22112058 42.79102368 -3.24791365 47.18056671 -3.27352905 51.57012939 C-3.32033269 59.88209791 -3.35706913 68.19407931 -3.39020193 76.50611234 C-3.42841211 85.96918715 -3.47782516 95.43219305 -3.52818608 104.89520979 C-3.63152951 124.36107982 -3.7203847 143.82699135 -3.80078125 163.29296875 C-8.42078125 163.29296875 -13.04078125 163.29296875 -17.80078125 163.29296875 C-17.89338606 143.31752302 -17.96476423 123.34213794 -18.00802994 103.36652184 C-18.02865313 94.09144151 -18.05676908 84.81649704 -18.10253906 75.54150391 C-18.14241427 67.45719328 -18.16821583 59.37298105 -18.17713523 51.28857481 C-18.18234883 47.00809972 -18.19459752 42.72790608 -18.22370148 38.44752121 C-18.25088148 34.4173885 -18.2592211 30.3876528 -18.25321198 26.35743713 C-18.25431107 24.87960781 -18.26224985 23.40176502 -18.27760315 21.92401505 C-18.29756735 19.90308529 -18.29032125 17.8819418 -18.28179932 15.8609314 C-18.28548649 14.7308132 -18.28917366 13.600695 -18.29297256 12.4363308 C-17.54723419 7.67369963 -15.24704731 4.51357173 -11.60083008 1.4362793 C-7.6776086 -0.16564294 -4.1963892 -0.08067608 0 0 Z " fill="#8494AF" transform="translate(42.80078125,333.70703125)"/>
<path d="M0 0 C1.28079941 0.00015106 2.56159882 0.00030212 3.88121033 0.00045776 C5.25878051 0.01066789 6.63634907 0.02109983 8.01391602 0.03173828 C9.43880514 0.03547358 10.86369685 0.03831811 12.28858948 0.04031372 C16.01878082 0.04790957 19.74881367 0.0675227 23.47894287 0.08972168 C27.96525549 0.11388731 32.45162142 0.1229804 36.93798065 0.1346283 C43.73553771 0.15394995 50.53274778 0.19230033 57.33032227 0.22705078 C57.33032227 14.41705078 57.33032227 28.60705078 57.33032227 43.22705078 C54.69032227 41.24705078 52.05032227 39.26705078 49.33032227 37.22705078 C41.50173836 32.56100739 33.16588929 29.39892201 24.33032227 27.22705078 C23.62367432 27.04609863 22.91702637 26.86514648 22.18896484 26.67871094 C12.61358199 24.55916248 2.89017515 25.00845359 -6.85717773 25.10205078 C-8.68594887 25.11210165 -10.51472536 25.12122377 -12.34350586 25.12939453 C-16.78569729 25.15123889 -21.22762726 25.18565236 -25.66967773 25.22705078 C-25.74264029 17.64326555 -25.12569983 13.042919 -19.86889648 7.23876953 C-13.91031604 1.65043097 -8.19617436 -0.0324601 0 0 Z " fill="#FDC02D" transform="translate(144.669677734375,98.77294921875)"/>
<path d="M0 0 C0.66 0 1.32 0 2 0 C3.06449583 1.73282986 4.04962135 3.51454808 5 5.3125 C13.63299789 20.469399 25.58890348 28.65284933 41 36 C41 42.6 41 49.2 41 56 C37.968125 56.226875 34.93625 56.45375 31.8125 56.6875 C14.10350205 58.31696879 -0.22338353 65.57135316 -12 79 C-13.78776384 81.28180631 -15.40224204 83.57759276 -17 86 C-18.27010342 82.18968973 -17.5995471 80.1103718 -16.77734375 76.18359375 C-16.63687119 75.50376434 -16.49639862 74.82393494 -16.35166931 74.12350464 C-15.88823987 71.89308762 -15.41320737 69.66532797 -14.9375 67.4375 C-14.61242963 65.88899225 -14.28772565 64.34040753 -13.96337891 62.79174805 C-11.59313801 51.53464349 -9.0516048 40.32034547 -6.421875 29.12109375 C-4.15549434 19.4421499 -2.08147861 9.72008603 0 0 Z " fill="#FDFDFD" transform="translate(292,296)"/>
<path d="M0 0 C-0.65226562 0.52207031 -1.30453125 1.04414063 -1.9765625 1.58203125 C-11.80382152 9.85838066 -18.10268772 20.18890541 -19.29072571 33.17875671 C-19.41100917 36.78109015 -19.4420291 40.37222202 -19.43359375 43.9765625 C-19.43817125 45.31399801 -19.44348139 46.65143119 -19.44947815 47.98886108 C-19.45836013 50.78092038 -19.45604653 53.57269298 -19.44604492 56.36474609 C-19.43688276 59.19447487 -19.44371184 62.02337666 -19.46655273 64.85302734 C-19.68443484 91.97913451 -17.19666213 114.20742159 2.4375 134.6875 C6.01368148 138.16614925 9.93553038 141.11792154 14 144 C12 145 12 145 9.56640625 144.28515625 C-7.0922579 137.50471167 -19.86513297 126.10409197 -28 110 C-31.17290628 101.75594582 -33.09468443 93.63263462 -33.17700195 84.78613281 C-33.18983719 83.57757629 -33.20267242 82.36901978 -33.21589661 81.12384033 C-33.22328354 79.83000427 -33.23067047 78.53616821 -33.23828125 77.203125 C-33.24235678 76.53709007 -33.2464323 75.87105515 -33.25063133 75.18483734 C-33.27141552 71.65903544 -33.28574984 68.13327158 -33.29516602 64.60742188 C-33.30621291 60.99194562 -33.34061406 57.3770877 -33.38033772 53.76182938 C-33.40664987 50.9580176 -33.41487065 48.15435006 -33.41844749 45.35042572 C-33.42560216 43.37750936 -33.4519729 41.40469224 -33.47883606 39.4319458 C-33.45246125 28.42279884 -30.93266993 19.12758311 -23.09765625 11.03515625 C-18.32038852 6.52655735 -7.11743396 -3.55871698 0 0 Z " fill="#E8BEA9" transform="translate(109,142)"/>
<path d="M0 0 C0.93513428 -0.0103125 1.87026855 -0.020625 2.83374023 -0.03125 C8.80018629 0.04518165 13.29001502 1.02152073 18.75 3.4375 C15.56547306 14.6905952 6.47866552 22.54133908 -3.25 28.4375 C-15.91226729 35.1269997 -27.64624553 36.60965838 -41.75 36.5 C-42.85859375 36.49548828 -43.9671875 36.49097656 -45.109375 36.48632812 C-47.82297399 36.47463158 -50.53645761 36.45824086 -53.25 36.4375 C-46.94295898 20.23656345 -35.71269783 10.78473953 -20.51953125 3.046875 C-13.79563265 0.29133791 -7.17274915 0.06633209 0 0 Z " fill="#A35235" transform="translate(358.25,165.5625)"/>
<path d="M0 0 C4.63673405 3.48006503 4.63673405 3.48006503 5.17932129 6.36254883 C5.18137573 7.12849365 5.18343018 7.89443848 5.18554688 8.68359375 C5.19565796 9.55459717 5.20576904 10.42560059 5.21618652 11.32299805 C5.21316528 12.26054932 5.21014404 13.19810059 5.20703125 14.1640625 C5.21786743 15.12932861 5.22870361 16.09459473 5.23986816 17.08911133 C5.28581616 21.22309453 5.29722378 25.35701796 5.31201172 29.49121094 C5.32767649 32.50739095 5.36067307 35.52304087 5.39453125 38.5390625 C5.39151001 39.47661377 5.38848877 40.41416504 5.38537598 41.38012695 C5.39548706 42.25113037 5.40559814 43.12213379 5.41601562 44.01953125 C5.41807007 44.78547607 5.42012451 45.5514209 5.42224121 46.34057617 C5.91067051 48.935347 6.70156574 49.78045432 8.80078125 51.3515625 C9.83693825 51.58721169 9.83693825 51.58721169 10.89402771 51.82762146 C11.83787071 52.08697227 11.83787071 52.08697227 12.80078125 52.3515625 C13.99050118 55.0204874 14.8808724 57.47944787 15.7109375 60.26171875 C15.96451523 61.06258408 16.21809296 61.8634494 16.47935486 62.68858337 C17.28975207 65.25911593 18.07701944 67.83605643 18.86328125 70.4140625 C19.65803204 72.96532596 20.4574307 75.51509164 21.25791931 78.06455994 C21.75435285 79.65152643 22.24660721 81.23980866 22.73390198 82.8296051 C23.86375802 86.49578168 25.06702277 90.0842474 26.47436523 93.65405273 C27.80078125 97.3515625 27.80078125 97.3515625 27.80078125 101.3515625 C28.46078125 101.3515625 29.12078125 101.3515625 29.80078125 101.3515625 C28.02167197 108.10208352 26.09639934 114.75776587 23.80078125 121.3515625 C23.14078125 121.3515625 22.48078125 121.3515625 21.80078125 121.3515625 C12.53948981 93.67346984 3.30163143 65.98920446 -5.69384766 38.22338867 C-6.09301392 36.99224083 -6.09301392 36.99224083 -6.50024414 35.73622131 C-7.0115837 34.15703685 -7.52156497 32.57741177 -8.0300293 30.99729919 C-9.22050652 27.30887458 -10.43999947 23.63559 -11.72802734 19.97998047 C-11.96768723 19.29165634 -12.20734711 18.60333221 -12.45426941 17.89414978 C-13.10150557 16.04429183 -13.76062144 14.19860227 -14.4206543 12.35327148 C-15.18249097 9.41605547 -15.46434115 8.07701325 -14.19921875 5.3515625 C-11.6171875 3.578125 -11.6171875 3.578125 -8.38671875 1.9765625 C-7.32839844 1.43257813 -6.27007812 0.88859375 -5.1796875 0.328125 C-2.19921875 -0.6484375 -2.19921875 -0.6484375 0 0 Z " fill="#E7E2EA" transform="translate(116.19921875,354.6484375)"/>
<path d="M0 0 C0.66 0.33 1.32 0.66 2 1 C1.525625 1.78375 1.05125 2.5675 0.5625 3.375 C-2.7181674 8.88652124 -2.64135011 13.64547366 -2 20 C0.22726808 28.13002788 4.06159133 34.13943564 10 40 C10.87398437 40.87527344 11.74796875 41.75054687 12.6484375 42.65234375 C14.08136223 44.08551643 15.51641736 45.51621671 16.95825195 46.94042969 C19.52299575 49.48106463 21.98146164 52.05656351 24.3125 54.8125 C29.37187672 60.75230748 35.05276833 66.1350529 40.59887695 71.61474609 C41.73636614 72.73935206 42.86893408 73.86893408 44 75 C40.7 78.3 37.4 81.6 34 85 C28.64526372 80.51745496 23.61417523 75.80241897 18.65234375 70.890625 C17.87742081 70.1237738 17.10249786 69.35692261 16.30409241 68.5668335 C14.67481053 66.95130944 13.04702118 65.33427889 11.4206543 63.71582031 C9.76789116 62.0745945 8.11066667 60.43784899 6.44897461 58.80566406 C4.02759903 56.42718923 1.61996214 54.03552549 -0.78515625 51.640625 C-1.51968521 50.92360413 -2.25421417 50.20658325 -3.01100159 49.46783447 C-10.02708484 42.42233166 -16.02807548 34.6717733 -16.375 24.4375 C-16.29561907 17.14327434 -14.24875502 11.49531232 -9.25 6.1171875 C-6.40006968 3.57436174 -3.55611629 1.45444429 0 0 Z " fill="#E7404E" transform="translate(240,16)"/>
<path d="M0 0 C4.29 0 8.58 0 13 0 C13.0093457 1.58232422 13.01869141 3.16464844 13.02832031 4.79492188 C13.06857422 10.73676406 13.13442789 16.67810753 13.20751953 22.61962891 C13.23552552 25.17783134 13.25683992 27.73611703 13.27099609 30.29443359 C13.41438657 54.75684954 15.37633484 75.10677858 33.265625 93.38671875 C36.63007818 96.60217472 40.104598 99.45515285 44 102 C40.14193182 103.26554803 38.11910502 102.46360501 34.46704102 100.70263672 C33.43148071 100.16920654 33.43148071 100.16920654 32.375 99.625 C31.30366821 99.07416748 31.30366821 99.07416748 30.21069336 98.51220703 C16.72133283 91.31239235 7.44038707 79.86769531 2.5 65.4375 C0.8825436 60.03849044 -0.12651142 55.03246665 -0.11352539 49.38354492 C-0.11344986 48.28278122 -0.11337433 47.18201752 -0.11329651 46.04789734 C-0.10813522 44.8706459 -0.10297394 43.69339447 -0.09765625 42.48046875 C-0.0962413 41.26676102 -0.09482635 40.05305328 -0.09336853 38.80256653 C-0.08777665 34.93085248 -0.07522558 31.05919653 -0.0625 27.1875 C-0.05748395 24.56054771 -0.05292123 21.93359451 -0.04882812 19.30664062 C-0.03780987 12.87107141 -0.02055075 6.43554555 0 0 Z " fill="#E9BEA9" transform="translate(301,217)"/>
<path d="M0 0 C-0.40992188 0.73605469 -0.81984375 1.47210938 -1.2421875 2.23046875 C-1.78101563 3.20628906 -2.31984375 4.18210937 -2.875 5.1875 C-3.40867187 6.15042969 -3.94234375 7.11335938 -4.4921875 8.10546875 C-7.25102133 13.40157203 -8.25632079 17.23495583 -8.31884766 23.26879883 C-8.32889328 23.98153961 -8.3389389 24.6942804 -8.34928894 25.42861938 C-8.38004241 27.77141556 -8.39713396 30.11409786 -8.4140625 32.45703125 C-8.43278048 34.08657302 -8.45235437 35.71610517 -8.4727478 37.34562683 C-8.52400851 41.62480994 -8.56366657 45.90402445 -8.60089111 50.18334961 C-8.64096884 54.55395233 -8.69204397 58.9244251 -8.7421875 63.29492188 C-8.83887499 71.86319238 -8.92330262 80.43152735 -9 89 C-13.29 89 -17.58 89 -22 89 C-22.11334658 79.78509708 -22.20491368 70.57066359 -22.25906086 61.35521889 C-22.28506007 57.07525174 -22.32027849 52.79578977 -22.37719727 48.51611328 C-22.43186608 44.37931794 -22.46149316 40.24300586 -22.47438622 36.10587692 C-22.48356406 34.53430966 -22.50148539 32.96276629 -22.52865028 31.39140701 C-22.67646155 22.47988156 -22.64768976 14.43406181 -17 7 C-11.59590848 1.98393567 -7.48335963 -0.16629688 0 0 Z " fill="#E9E5ED" transform="translate(328,408)"/>
<path d="M0 0 C13.07119516 6.71407294 24.93345786 15.99680701 30.37890625 30.10546875 C30.68828125 31.31203125 30.68828125 31.31203125 31.00390625 32.54296875 C30.05515625 31.69734375 29.10640625 30.85171875 28.12890625 29.98046875 C9.27763936 13.95689189 -9.81276781 9.31849655 -33.99609375 10.54296875 C-47.52600384 12.06489339 -60.86251003 19.7263045 -70.99609375 28.54296875 C-72.00671875 29.34734375 -73.01734375 30.15171875 -74.05859375 30.98046875 C-74.69796875 31.49609375 -75.33734375 32.01171875 -75.99609375 32.54296875 C-70.82256397 18.60457542 -60.97614196 8.46331921 -47.99609375 1.54296875 C-44.38282418 0.0123154 -40.73828543 -1.28127508 -36.99609375 -2.45703125 C-25.89262501 -6.1581875 -10.60886437 -4.55759877 0 0 Z " fill="#F7F7F7" transform="translate(380.99609375,141.45703125)"/>
<path d="M0 0 C2.99636839 2.42563155 4.86384405 4.77761195 6.875 8.0625 C9.42290342 11.58460179 11.84195307 13.76940155 16 15 C21.12249773 15.30526513 25.5069032 14.67335738 30.1875 12.5625 C33.64062993 9.41631495 36.2168927 5.87897969 38.875 2.046875 C41 0 41 0 44.0703125 -0.3984375 C47.87178616 0.11856292 49.44883495 1.14869789 52 4 C53.14757958 8.38166749 51.54953677 11.21877288 49.4375 15 C44.49817907 22.70395255 37.91292971 27.81696957 29.14453125 30.5859375 C20.42563119 32.26936811 11.65395184 31.62452018 4 27 C-1.91958297 22.56245445 -7.17662091 17.93011231 -10 11 C-10.54895024 6.95149199 -10.65353957 4.98030936 -8.375 1.5625 C-5.24316508 -0.49791771 -3.68455227 -0.6767545 0 0 Z " fill="#060504" transform="translate(119,239)"/>
<path d="M0 0 C3.57202428 2.79549726 4.96359844 4.70633639 6 9 C7.86644906 10.18330183 7.86644906 10.18330183 10 11 C10.99 11.66 11.98 12.32 13 13 C17.73266462 13.70053211 21.8145372 13.53462048 26.1875 11.5625 C28.75743186 9.22100653 30.39679517 7.07283161 32.375 4.25 C35.36887623 0.20494056 35.36887623 0.20494056 38.1171875 -0.6875 C41.03944027 -0.77313378 43.41521032 -0.31066952 46 1.0625 C47.62551601 4.21193728 47.40776157 6.50490081 47 10 C44.69192018 14.9580974 42.0879842 18.31084352 38 22 C36.8553125 23.051875 36.8553125 23.051875 35.6875 24.125 C28.23980635 29.32106534 20.88418515 29.9408042 12 29 C3.43833306 26.97699009 -3.67918756 21.94542254 -8.5 14.5625 C-10.35183858 10.16438338 -10.551035 7.72315711 -10 3 C-7.82992697 -1.08484336 -4.19491992 -0.57860964 0 0 Z " fill="#040303" transform="translate(341,272)"/>
<path d="M0 0 C0.33 0 0.66 0 1 0 C1 24.42 1 48.84 1 74 C-4.28 74 -9.56 74 -15 74 C-13.85099947 64.11859545 -11.83146004 54.65338388 -9.53808594 44.98535156 C-7.22273113 35.14999312 -5.14590641 25.27449376 -3.125 15.375 C-2.88953964 14.22239685 -2.88953964 14.22239685 -2.64932251 13.04650879 C-1.76194604 8.69853317 -0.87903048 4.3496718 0 0 Z " fill="#FEFEFE" transform="translate(264,423)"/>
<path d="M0 0 C2.875 1.25 2.875 1.25 5 4 C5.4236426 8.03264851 5.28579987 11.96069517 5 16 C5.928125 16.103125 6.85625 16.20625 7.8125 16.3125 C11 17 11 17 12.875 18.125 C14.70099685 21.16832808 14.42460581 23.54249555 14 27 C11.80195695 29.96418786 10.61152914 30.89378293 6.94140625 31.53125 C5.26884766 31.51578125 5.26884766 31.51578125 3.5625 31.5 C2.45003906 31.5103125 1.33757812 31.520625 0.19140625 31.53125 C-3.65406192 30.89112311 -5.26578317 29.73903908 -8 27 C-10.63350995 22.60870704 -10.36747131 18.49152293 -10.375 13.5 C-10.39949219 12.64535156 -10.42398438 11.79070312 -10.44921875 10.91015625 C-10.47844087 4.6663635 -10.47844087 4.6663635 -8.16015625 1.4375 C-5.18268308 -0.54389264 -3.51270344 -0.5735026 0 0 Z " fill="#050403" transform="translate(140,196)"/>
<path d="M0 0 C-0.33 4.62 -0.66 9.24 -1 14 C-3.8771875 15.0209375 -3.8771875 15.0209375 -6.8125 16.0625 C-12.5906232 18.27029817 -17.55077354 20.98405845 -22.66015625 24.44921875 C-24.72488063 25.81765878 -26.76068348 26.95015877 -29 28 C-29.44992823 20.50119619 -29.66872651 14.19614938 -25 8 C-23.09822167 5.95932775 -21.33046064 4.63132245 -19 3 C-18.154375 2.401875 -17.30875 1.80375 -16.4375 1.1875 C-10.97296154 -0.70024965 -5.75578395 -0.17619747 0 0 Z " fill="#DFA530" transform="translate(105,113)"/>
<path d="M0 0 C4.14404717 1.38134906 7.57183724 2.66575296 11.3984375 4.6015625 C12.37167969 5.09140625 13.34492187 5.58125 14.34765625 6.0859375 C15.34667969 6.59382813 16.34570312 7.10171875 17.375 7.625 C18.39722656 8.140625 19.41945313 8.65625 20.47265625 9.1875 C22.98362669 10.45471873 25.49264561 11.72564556 28 13 C27 16 27 16 24.73095703 17.42626953 C23.74981934 17.90692871 22.76868164 18.38758789 21.7578125 18.8828125 C20.69175781 19.41003906 19.62570313 19.93726563 18.52734375 20.48046875 C17.40457031 21.02316406 16.28179687 21.56585938 15.125 22.125 C13.45244141 22.95064453 13.45244141 22.95064453 11.74609375 23.79296875 C3.55125957 27.81624681 3.55125957 27.81624681 0 29 C0 19.43 0 9.86 0 0 Z " fill="#8CD5E5" transform="translate(87,322)"/>
<path d="M0 0 C0 9.24 0 18.48 0 28 C-10.125 24.625 -10.125 24.625 -13.81640625 22.73828125 C-14.59951172 22.34189453 -15.38261719 21.94550781 -16.18945312 21.53710938 C-16.97255859 21.13298828 -17.75566406 20.72886719 -18.5625 20.3125 C-19.78936523 19.68891602 -19.78936523 19.68891602 -21.04101562 19.05273438 C-23.03024551 18.04067005 -25.0164154 17.02307153 -27 16 C-26.82983398 14.18847656 -26.82983398 14.18847656 -26 12 C-23.71508789 10.44433594 -23.71508789 10.44433594 -20.72265625 8.984375 C-19.65208984 8.45585937 -18.58152344 7.92734375 -17.47851562 7.3828125 C-16.35123047 6.84398437 -15.22394531 6.30515625 -14.0625 5.75 C-12.93908203 5.19570313 -11.81566406 4.64140625 -10.65820312 4.0703125 C-2.32208282 0 -2.32208282 0 0 0 Z " fill="#8DD7E7" transform="translate(190,322)"/>
<path d="M0 0 C4.11879585 0.75651352 5.56365585 2.25520628 8.0625 5.5625 C8.375 8.375 8.375 8.375 8.0625 10.5625 C8.990625 10.7171875 8.990625 10.7171875 9.9375 10.875 C12.0625 11.5625 12.0625 11.5625 14.0625 14.5625 C13.91771797 17.96487772 13.38395609 20.05352786 11.5625 22.9375 C7.80756986 25.37820459 4.41016248 25.45760698 0.0625 24.5625 C-3.00450597 22.83810453 -5.34013593 20.75722813 -6.9375 17.5625 C-7.11181846 15.44210174 -7.20459071 13.31456692 -7.25 11.1875 C-7.28738281 10.04539063 -7.32476562 8.90328125 -7.36328125 7.7265625 C-6.9375 4.5625 -6.9375 4.5625 -5.1015625 2.18359375 C-2.9375 0.5625 -2.9375 0.5625 0 0 Z " fill="#070605" transform="translate(356.9375,237.4375)"/>
<path d="M0 0 C1.670625 0.24363281 1.670625 0.24363281 3.375 0.4921875 C8.25819232 1.10043725 13.08465152 1.14734249 18 1.125 C19.27617187 1.13080078 19.27617187 1.13080078 20.578125 1.13671875 C25.8079303 1.12869758 30.82453277 0.75475564 36 0 C36 3.96 36 7.92 36 12 C24.12 12 12.24 12 0 12 C0 8.04 0 4.08 0 0 Z " fill="#FDB889" transform="translate(121,302)"/>
<path d="M0 0 C1.28079941 0.00015106 2.56159882 0.00030212 3.88121033 0.00045776 C5.25878051 0.01066789 6.63634907 0.02109983 8.01391602 0.03173828 C9.43880514 0.03547358 10.86369685 0.03831811 12.28858948 0.04031372 C16.01878082 0.04790957 19.74881367 0.0675227 23.47894287 0.08972168 C27.29331316 0.11026787 31.10770933 0.11933411 34.92211914 0.12939453 C42.39159203 0.1507729 49.86093485 0.18485923 57.33032227 0.22705078 C57.33032227 0.55705078 57.33032227 0.88705078 57.33032227 1.22705078 C36.87032227 1.22705078 16.41032227 1.22705078 -4.66967773 1.22705078 C-5.32967773 2.54705078 -5.98967773 3.86705078 -6.66967773 5.22705078 C-7.65967773 6.74298828 -7.65967773 6.74298828 -8.66967773 8.28955078 C-11.40350602 12.96154091 -11.88462875 17.92797014 -12.66967773 23.22705078 C-8.04967773 23.22705078 -3.42967773 23.22705078 1.33032227 23.22705078 C1.33032227 23.55705078 1.33032227 23.88705078 1.33032227 24.22705078 C-12.03467773 24.72205078 -12.03467773 24.72205078 -25.66967773 25.22705078 C-25.66967773 16.97119077 -25.27233643 13.20482361 -19.86889648 7.23876953 C-13.91031604 1.65043097 -8.19617436 -0.0324601 0 0 Z " fill="#CF9A2B" transform="translate(144.669677734375,98.77294921875)"/>
<path d="M0 0 C0 9.57 0 19.14 0 29 C-7 29 -7 29 -9.8984375 27.12890625 C-12.8632459 22.71475843 -12.7375486 19.1409968 -12.625 13.9375 C-12.64433594 13.03966797 -12.66367187 12.14183594 -12.68359375 11.21679688 C-12.65212677 6.98448783 -12.59901185 4.7470947 -9.8984375 1.37890625 C-7 0 -7 0 0 0 Z " fill="#F2AF83" transform="translate(61,201)"/>
<path d="M0 0 C5.94 0 11.88 0 18 0 C18 5.94 18 11.88 18 18 C12.06 18 6.12 18 0 18 C0 12.06 0 6.12 0 0 Z " fill="#88CFDE" transform="translate(130,328)"/>
<path d="M0 0 C9 1 9 1 11.03515625 2.46875 C12.55192464 6.44796424 12.47252524 10.27786702 12.4375 14.5 C12.45748047 15.35464844 12.47746094 16.20929688 12.49804688 17.08984375 C12.4931686 23.34379209 12.4931686 23.34379209 10.09765625 26.53125 C6.08158322 29.34324899 5.67923421 29 0 29 C0 19.43 0 9.86 0 0 Z " fill="#F6B385" transform="translate(217,201)"/>
<path d="M0 0 C2.0078125 0.42578125 2.0078125 0.42578125 3.7421875 1.9765625 C5.49911077 5.37653438 5.40531107 8.11602335 5.3828125 11.92578125 C5.39054688 13.23546875 5.39828125 14.54515625 5.40625 15.89453125 C4.99866235 19.50687672 4.68520716 21.00885712 2.0078125 23.42578125 C-0.69980615 24.11906264 -3.24927109 23.90679373 -5.9921875 23.42578125 C-8.66650239 21.61414858 -8.95139109 20.54817048 -9.9921875 17.42578125 C-10.90240771 6.11804551 -10.90240771 6.11804551 -6.9921875 1.42578125 C-5.12296096 -0.44344529 -2.49467581 0.13347896 0 0 Z " fill="#050403" transform="translate(173.9921875,185.57421875)"/>
<path d="M0 0 C9.48489394 5.78347191 14.89487359 13.16215762 20 23 C20 23.33 20 23.66 20 24 C10.05641107 23.82855881 0.70389343 19.20115866 -7 13 C-5.35821735 8.22390502 -2.73453298 4.20617096 0 0 Z " fill="#A25134" transform="translate(391,176)"/>
<path d="M0 0 C2.1875 1.5625 2.1875 1.5625 4 4 C4.53125 7.53125 4.53125 7.53125 4.5 11.5 C4.5103125 12.8096875 4.520625 14.119375 4.53125 15.46875 C4 19 4 19 2.15625 21.44140625 C-0.76611422 23.55376734 -2.46772224 23.51512384 -6 23 C-9.1359157 21.22015595 -9.84102736 20.47691793 -11 17 C-11.17032265 14.8584021 -11.26617837 12.71036073 -11.3125 10.5625 C-11.36857422 8.86287109 -11.36857422 8.86287109 -11.42578125 7.12890625 C-11 4 -11 4 -9.19921875 1.62109375 C-6.00060885 -0.73667376 -3.87124077 -0.5530344 0 0 Z " fill="#060504" transform="translate(392,223)"/>
<path d="M0 0 C2.19140625 1.59375 2.19140625 1.59375 4 4 C4.49609375 7.3125 4.49609375 7.3125 4.4375 11 C4.43621094 12.216875 4.43492187 13.43375 4.43359375 14.6875 C3.97935221 18.1577417 3.47106153 19.57567249 1 22 C-2.62680345 23.1826533 -4.30474847 23.30900068 -7.8125 21.75 C-10 20 -10 20 -11 17 C-11.17032265 14.8584021 -11.26617837 12.71036073 -11.3125 10.5625 C-11.36857422 8.86287109 -11.36857422 8.86287109 -11.42578125 7.12890625 C-11 4 -11 4 -9.19921875 1.62109375 C-6.00060885 -0.73667376 -3.87124077 -0.5530344 0 0 Z " fill="#050403" transform="translate(332,223)"/>
<path d="M0 0 C1.0209375 -0.01160156 1.0209375 -0.01160156 2.0625 -0.0234375 C4.58755384 0.4958276 5.3821362 1.39360924 7 3.375 C7.2981028 6.29757643 7.41882117 8.95845783 7.375 11.875 C7.38660156 12.64714844 7.39820312 13.41929687 7.41015625 14.21484375 C7.38055089 19.90894098 7.38055089 19.90894098 5.59619141 22.09423828 C3.60838663 23.6892251 2.52431126 23.77868536 0 23.75 C-0.680625 23.75773437 -1.36125 23.76546875 -2.0625 23.7734375 C-4.58755384 23.2541724 -5.3821362 22.35639076 -7 20.375 C-7.2981028 17.45242357 -7.41882117 14.79154217 -7.375 11.875 C-7.38660156 11.10285156 -7.39820312 10.33070313 -7.41015625 9.53515625 C-7.38055089 3.84105902 -7.38055089 3.84105902 -5.59619141 1.65576172 C-3.60838663 0.0607749 -2.52431126 -0.02868536 0 0 Z " fill="#020202" transform="translate(106,185.625)"/>
<path d="M0 0 C6 0 6 0 8.34375 1.375 C10.90664839 5.43695217 10.58063793 9.29612076 10.5 14 C10.51546875 14.90234375 10.5309375 15.8046875 10.546875 16.734375 C10.52344983 20.69322932 10.48486758 23.23153063 8.34375 26.625 C6 28 6 28 0 28 C0 18.76 0 9.52 0 0 Z " fill="#F3B083" transform="translate(431,236)"/>
<path d="M0 0 C0 9.24 0 18.48 0 28 C-6 28 -6 28 -8.34375 26.625 C-10.90664839 22.56304783 -10.58063793 18.70387924 -10.5 14 C-10.51546875 13.09765625 -10.5309375 12.1953125 -10.546875 11.265625 C-10.52344983 7.30677068 -10.48486758 4.76846937 -8.34375 1.375 C-6 0 -6 0 0 0 Z " fill="#F4B184" transform="translate(286,236)"/>
<path d="M0 0 C-1.42378947 3.36397926 -3.12610426 5.19643552 -5.9375 7.5 C-8.73240887 9.79861664 -10.92226472 12.02994581 -13 15 C-12.67 15.66 -12.34 16.32 -12 17 C-12.81082031 17.38929688 -13.62164062 17.77859375 -14.45703125 18.1796875 C-22.89692308 22.44384705 -29.2916827 27.31856974 -36 34 C-36 26.68425109 -29.6163959 19.2818712 -24.75 14.1875 C-18.78343636 8.57730108 -8.71651318 0 0 0 Z " fill="#E0DCE4" transform="translate(342,140)"/>
<path d="M0 0 C4 2 8 4 12 6 C11.52013969 11.56890517 10.70084819 16.67067568 9 22 C4.65920659 21.82977281 2.47961956 21.38777751 -0.9375 18.625 C-3.67975686 14.8962547 -3.51900686 11.0713622 -3.46875 6.5859375 C-2.93730624 3.65413945 -1.95185896 2.21141467 0 0 Z " fill="#F8F8F8" transform="translate(272,197)"/>
<path d="M0 0 C-0.66467028 3.7481922 -1.68926995 7.21853952 -2.9375 10.8125 C-4.5344801 15.51052509 -5.88465533 20.16683975 -7 25 C-10.37329915 23.60415208 -12.04232662 22.07634389 -14 19 C-15.20643566 15.38069302 -15.32268559 12.80768995 -15 9 C-11.48082483 2.2223293 -7.66363991 -0.53467255 0 0 Z " fill="#8DD6E6" transform="translate(293,162)"/>
<path d="M0 0 C1.134375 0.020625 2.26875 0.04125 3.4375 0.0625 C3.4375 4.3525 3.4375 8.6425 3.4375 13.0625 C1.3140984 13.89989781 -0.8112728 14.73230283 -2.9375 15.5625 C-4.12085937 16.0265625 -5.30421875 16.490625 -6.5234375 16.96875 C-9.5625 18.0625 -9.5625 18.0625 -11.5625 18.0625 C-11.26361252 11.18808804 -7.78257098 0.13653633 0 0 Z " fill="#FCBF2D" transform="translate(100.5625,113.9375)"/>
<path d="M0 0 C2.46800047 1.15173355 4.04783565 2.04783565 6 4 C6.22705078 6.33837891 6.22705078 6.33837891 6.1953125 9.2265625 C6.18564453 10.7734375 6.18564453 10.7734375 6.17578125 12.3515625 C6.15902344 13.43179687 6.14226562 14.51203125 6.125 15.625 C6.11597656 16.71296875 6.10695313 17.8009375 6.09765625 18.921875 C6.07403409 21.61480152 6.04109556 24.30729255 6 27 C3.83278569 22.8152571 2.29244191 18.5077319 0.75 14.0625 C0.45609375 13.26392578 0.1621875 12.46535156 -0.140625 11.64257812 C-2.18892449 5.69955532 -2.18892449 5.69955532 -1.171875 1.93359375 C-0.78515625 1.29550781 -0.3984375 0.65742188 0 0 Z " fill="#FAFAFA" transform="translate(114,354)"/>
<path d="M0 0 C7.75 0.875 7.75 0.875 10 2 C10 4.97 10 7.94 10 11 C6.7 11.33 3.4 11.66 0 12 C0 8.04 0 4.08 0 0 Z " fill="#E8A584" transform="translate(121,302)"/>
</svg>
